<svg width="125" height="64" viewBox="0 0 125 64" fill="none" xmlns="http://www.w3.org/2000/svg">
<g clip-path="url(#clip0_55_22)">
<path d="M29.2087 47.84H3.78772C1.69906 47.84 0 46.1217 0 44.0154V20.6246C0 18.5183 1.69906 16.8 3.78772 16.8H29.1654V17.9086H3.78772C2.29427 17.9086 1.08221 19.128 1.08221 20.6246V44.0154C1.08221 45.512 2.29427 46.7314 3.78772 46.7314H29.2087V47.84Z" fill="#4C4C4C"/>
<path d="M121.213 47.84H61.0967V46.7314H121.213C122.707 46.7314 123.919 45.512 123.919 44.0154V20.6246C123.919 19.128 122.707 17.9086 121.213 17.9086H61.1238V16.8H121.213C123.302 16.8 125.001 18.5183 125.001 20.6246V44.0154C125.001 46.1273 123.302 47.84 121.213 47.84Z" fill="#4C4C4C"/>
<path d="M29.7605 46.1662H5.05377C2.13723 46.1662 1.60154 45.6119 1.62318 42.7019V21.9439C1.62318 19.0339 2.13723 18.4796 5.05377 18.4796H29.1653V19.5882H5.05377C2.67833 19.6492 2.67833 19.6492 2.70538 21.9439V42.7019C2.80278 45.0244 2.80278 45.0244 5.05377 45.0576H29.7605V46.1662Z" fill="#4C4C4C"/>
<path d="M119.913 46.1659H61.6364V45.0573H119.913C122.229 45.0185 122.229 45.0185 122.262 42.7016V21.9436C122.272 19.7431 122.273 19.7431 119.913 19.5879H61.6255V18.4793H119.913C122.857 18.4793 123.343 18.9615 123.343 21.9436V42.7016C123.343 45.6837 122.862 46.1659 119.913 46.1659Z" fill="#4C4C4C"/>
<path d="M56.7776 47.84H45.4415V46.7314H56.7776C58.271 46.7314 59.4831 45.512 59.4831 44.0154V20.6246C59.4831 19.128 58.271 17.9086 56.7776 17.9086H45.4307V16.8H56.7776C58.8662 16.8 60.5653 18.5183 60.5653 20.6246V44.0154C60.5653 46.1273 58.8662 47.84 56.7776 47.84Z" fill="#4C4C4C"/>
<path d="M55.4848 46.166H45.431V45.0574H55.4848C57.7141 44.9743 57.7141 44.9743 57.8332 42.7017V21.9437C57.7574 19.6989 57.7574 19.6989 55.4848 19.588H44.917V18.4794H55.4793C58.4229 18.4794 58.9099 18.9672 58.9099 21.9437V42.7017C58.9153 45.6727 58.2173 46.3101 55.4848 46.166Z" fill="#4C4C4C"/>
<path d="M14.5824 21.783C15.5997 21.8107 16.7631 22.8694 16.7631 23.9115C16.7631 24.9535 16.7631 27.6806 16.7631 29.0663C16.7631 30.452 15.4374 31.1948 14.3444 31.2225C15.5023 31.2225 16.7631 32.7468 16.7631 33.5782C16.7631 34.4096 16.7631 38.9825 16.7631 40.0911C16.7631 42.02 15.6917 42.8514 13.5219 42.8514C11.8282 42.8514 5.39453 42.8514 5.39453 42.8514V21.7719C5.39994 21.7719 13.6193 21.7553 14.5824 21.783ZM9.95059 23.9059V29.8922C9.95059 29.8922 11.4116 29.8867 11.7741 29.8922C11.9906 29.8978 12.2124 29.5929 12.2178 29.3546C12.2286 29.0442 12.2233 24.693 12.2124 24.3272C12.2016 23.9613 11.9527 23.9004 11.6389 23.9004C11.325 23.9004 9.95059 23.9059 9.95059 23.9059ZM9.95059 32.5694V40.7728C9.95059 40.7728 11.4116 40.7673 11.7741 40.7728C11.9906 40.7784 12.2124 40.4735 12.2178 40.2352C12.2286 39.9248 12.2233 33.3565 12.2124 32.9907C12.2016 32.6193 11.9527 32.5639 11.6389 32.5639C11.325 32.5639 9.95059 32.5694 9.95059 32.5694Z" fill="#4C4C4C"/>
<path d="M30.3392 21.7719V42.8514H25.9508V37.7742H23.5591V42.8514C23.5591 42.8514 19.6362 42.8514 18.9761 42.8514C18.9761 42.8514 18.9761 24.948 18.9761 23.9115C18.9761 22.8749 20.1394 21.8107 21.1567 21.783C22.1252 21.7553 30.3392 21.7719 30.3392 21.7719ZM24.1328 23.8505C23.8189 23.8505 23.5646 23.9059 23.5591 24.2773C23.5484 24.6487 23.5591 35.3686 23.5591 35.3686C23.9217 35.363 25.8209 35.3686 25.8209 35.3686V23.8616C25.8209 23.8616 24.4466 23.8505 24.1328 23.8505Z" fill="#4C4C4C"/>
<path d="M54.6947 21.7719V42.8514H50.3064V37.7742H47.9147V42.8514C47.9147 42.8514 43.9917 42.8514 43.3315 42.8514C43.3315 42.8514 43.3315 24.948 43.3315 23.9115C43.3315 22.8749 44.495 21.8107 45.5122 21.783C46.4808 21.7553 54.6947 21.7719 54.6947 21.7719ZM48.4883 23.8505C48.1744 23.8505 47.9201 23.9059 47.9147 24.2773C47.9039 24.6487 47.9147 35.3686 47.9147 35.3686C48.2773 35.363 50.1765 35.3686 50.1765 35.3686V23.8616C50.1765 23.8616 48.8021 23.8505 48.4883 23.8505Z" fill="#4C4C4C"/>
<path d="M69.3314 26.3503C68.6226 25.9623 67.9841 25.7683 67.4159 25.7683C66.8477 25.7683 66.3662 25.979 65.9657 26.3947C65.5653 26.8104 65.3651 27.3148 65.3651 27.9023C65.3651 28.3181 65.4841 28.7615 65.7223 29.2326C65.9604 29.7038 66.5014 30.4576 67.3401 31.4941C68.1789 32.5306 68.8174 33.4341 69.2611 34.1935C69.7048 34.9584 69.9266 35.8286 69.9266 36.8208C69.9266 38.0513 69.5641 39.049 68.8444 39.8195C68.1193 40.5844 67.1778 40.9724 66.0091 40.9724C65.3651 40.9724 64.5806 40.7784 63.6498 40.3904V38.4005C63.6769 38.4116 63.6985 38.4227 63.7256 38.4393C63.8501 38.5335 64.1206 38.6777 64.5264 38.8772C64.9323 39.0712 65.3272 39.171 65.7168 39.171C66.3499 39.171 66.8748 38.9548 67.2806 38.5225C67.6919 38.0901 67.8975 37.5358 67.8975 36.8596C67.8975 36.394 67.7947 35.9561 67.5837 35.5626C67.3726 35.1635 66.9938 34.6203 66.4473 33.9385L64.9917 32.1038C64.429 31.3943 64.007 30.7403 63.7364 30.1527C63.4659 29.5652 63.3306 28.8613 63.3306 28.0465C63.3306 26.8437 63.6715 25.8626 64.3587 25.1087C65.0459 24.3549 65.9333 23.978 67.0209 23.978C67.7838 23.978 68.5522 24.172 69.3314 24.56V26.3503Z" fill="#4C4C4C"/>
<path d="M71.6475 24.222H73.8281V30.6684H77.1884V24.222H79.369V40.773H77.1884V32.5474H73.8281V40.773H71.6475V24.222Z" fill="#4C4C4C"/>
<path d="M81.4517 32.4476C81.4517 28.8558 81.7979 26.5334 82.4858 25.4747C83.1729 24.416 84.3088 23.8895 85.8888 23.8895C87.6962 23.8895 88.9028 24.4826 89.4983 25.6632C90.0938 26.8438 90.3911 28.9722 90.3911 32.043C90.3911 34.7978 90.256 36.7045 89.9905 37.7688C89.7257 38.833 89.2653 39.6145 88.6108 40.1189C87.9563 40.6233 87.0635 40.8728 85.9431 40.8728C84.7855 40.8728 83.8981 40.64 83.2809 40.1799C82.6644 39.7198 82.204 38.966 81.9066 37.9295C81.6038 36.8874 81.4517 35.0638 81.4517 32.4476ZM88.1132 32.5806C88.1132 29.4378 87.9346 27.4978 87.572 26.7606C87.2094 26.0234 86.6683 25.6521 85.9486 25.6521C85.0992 25.6521 84.52 26.0955 84.2063 26.9824C83.8927 27.8692 83.735 29.3658 83.735 31.4665V32.3756C83.735 34.7202 83.86 36.4329 84.1194 37.5082C84.374 38.5836 84.985 39.1268 85.9486 39.1268C86.5441 39.1268 87.0526 38.8219 87.4742 38.2177C87.8965 37.6136 88.1132 35.9396 88.1132 33.1959V32.5806Z" fill="#4C4C4C"/>
<path d="M92.4956 24.2219H96.0616C98.3768 24.2219 99.5352 25.785 99.5352 28.9112C99.5352 30.1583 99.3295 31.1394 98.918 31.8544C98.5073 32.5695 97.9987 33.0184 97.3815 33.2069C96.7705 33.3954 95.8667 33.4951 94.6757 33.5118V40.7729H92.4956V24.2219ZM94.6757 31.7824C95.5958 31.7824 96.2557 31.5939 96.6563 31.2115C97.0515 30.829 97.2518 30.0641 97.2518 28.9112C97.2518 27.7527 97.0787 26.9601 96.7324 26.5444C96.3861 26.1287 95.699 25.918 94.6757 25.918V31.7824Z" fill="#4C4C4C"/>
<path d="M99.8382 38.2397C100.228 38.2397 100.542 38.3617 100.791 38.6056C101.035 38.8494 101.159 39.1543 101.159 39.5257C101.159 39.897 101.035 40.2185 100.785 40.479C100.536 40.7451 100.239 40.8726 99.8926 40.8726C99.5355 40.8726 99.2327 40.7395 98.978 40.4679C98.7241 40.2019 98.5991 39.886 98.5991 39.5201C98.5991 39.1543 98.7187 38.8494 98.9617 38.6056C99.2055 38.3617 99.492 38.2397 99.8382 38.2397Z" fill="#4C4C4C"/>
<path d="M110.282 40.773H108.02L105.489 33.0019H105.299V40.773H103.118V24.222H106.138C108.6 24.222 109.828 25.6355 109.828 28.4568C109.828 29.7372 109.644 30.7016 109.281 31.3557C108.919 32.0042 108.323 32.492 107.506 32.8245L110.282 40.773ZM105.299 31.4832C106.143 31.4665 106.754 31.2615 107.133 30.8679C107.506 30.4744 107.696 29.7593 107.696 28.7173C107.696 27.7196 107.523 27.0101 107.182 26.5888C106.841 26.162 106.256 25.9514 105.423 25.9514H105.299V31.4832Z" fill="#4C4C4C"/>
<path d="M119.329 36.8597C119.329 39.62 118.117 41.0057 115.704 41.0057C113.047 41.0057 111.721 39.6311 111.721 36.8874V24.2497H113.875V35.9562C113.875 37.2144 113.983 38.0791 114.194 38.5613C114.405 39.0435 114.865 39.2819 115.574 39.2819C116.283 39.2819 116.727 39.0269 116.905 38.5225C117.084 38.0181 117.17 37.1146 117.17 35.8287V24.2441H119.324V36.8597H119.329Z" fill="#4C4C4C"/>
<path d="M42.7582 47.8401H30.605L38.359 19.5216H31.3734V16.8444H43.6835L36.108 45.0908H42.7582V47.8401Z" fill="#4C4C4C"/>
</g>
<defs>
<clipPath id="clip0_55_22">
<rect width="125" height="64" fill="white"/>
</clipPath>
</defs>
</svg>
