<svg width="125" height="64" viewBox="0 0 125 64" fill="none" xmlns="http://www.w3.org/2000/svg">
<g clip-path="url(#clip0_55_82)">
<path d="M26.8122 39.9221V39.5877H26.4057V39.9221C25.9931 39.9294 25.5945 40.073 25.2724 40.3304C25.1381 40.4426 25.031 40.5837 24.9591 40.743C24.8871 40.9024 24.8523 41.0759 24.857 41.2505C24.8531 41.426 24.8883 41.6001 24.9601 41.7602C25.032 41.9204 25.1386 42.0626 25.2724 42.1766C25.5945 42.434 25.9931 42.5776 26.4057 42.585V42.9075H26.8181V42.585C27.2316 42.5769 27.6309 42.4334 27.9545 42.1766C28.0862 42.0614 28.1918 41.9194 28.2641 41.7602C28.3365 41.601 28.3739 41.4283 28.3739 41.2535C28.3739 41.0787 28.3365 40.906 28.2641 40.7468C28.1918 40.5876 28.0862 40.4456 27.9545 40.3304C27.6318 40.074 27.2336 39.9305 26.8211 39.9221M26.4057 42.2121C26.1072 42.2032 25.8193 42.0996 25.5839 41.9163C25.4921 41.8331 25.4188 41.7317 25.3686 41.6186C25.3184 41.5054 25.2925 41.3831 25.2925 41.2594C25.2925 41.1357 25.3184 41.0134 25.3686 40.9003C25.4188 40.7872 25.4921 40.6858 25.5839 40.6026C25.8189 40.4182 26.1069 40.3135 26.4057 40.3037V42.2121ZM27.643 41.9163C27.4064 42.0996 27.1176 42.2033 26.8181 42.2121V40.3037C27.1176 40.3126 27.4064 40.4162 27.643 40.5996C27.7373 40.6813 27.8129 40.7822 27.8647 40.8955C27.9165 41.0088 27.9434 41.1319 27.9434 41.2565C27.9434 41.381 27.9165 41.5041 27.8647 41.6174C27.8129 41.7308 27.7373 41.8317 27.643 41.9133M29.4231 42.1885V39.5877H29.0077V42.9075H29.4083L31.3516 40.2446V42.9075H31.764V39.5877H31.3398L29.4231 42.1885ZM34.906 41.0227H32.9567V39.5877H32.5443V42.9075H32.9567V41.3837H34.906V42.9075H35.3065V39.5877H34.8941L34.906 41.0227ZM37.0867 39.5877L35.7546 42.9075H36.2293L36.526 42.1707H38.1815L38.4782 42.9075H38.9529L37.6089 39.5877H37.0867ZM36.6357 41.8038L37.3448 40.0286L38.048 41.8038H36.6357ZM41.7389 41.0168H39.7926V39.5877H39.3772V42.9075H39.7926V41.3837H41.7389V42.9075H42.1542V39.5877H41.7389V41.0168ZM45.0322 42.4666C44.8724 42.5548 44.6926 42.6006 44.51 42.5997C44.3423 42.6013 44.1761 42.5682 44.0219 42.5025C43.8677 42.4368 43.7288 42.34 43.614 42.2181C43.3768 41.9513 43.2459 41.6071 43.2459 41.2505C43.2459 40.894 43.3768 40.5498 43.614 40.283C43.7281 40.1618 43.866 40.0654 44.0192 39.9998C44.1723 39.9341 44.3374 39.9006 44.5041 39.9013C44.6867 39.9005 44.8664 39.9463 45.0262 40.0345C45.1821 40.1191 45.3161 40.2386 45.4179 40.3836L45.765 40.1913C45.6288 39.9831 45.4414 39.8132 45.2207 39.6977C44.9999 39.5822 44.7532 39.525 44.5041 39.5315C44.2719 39.5219 44.0401 39.5592 43.8228 39.6412C43.6054 39.7232 43.4069 39.8481 43.2392 40.0086C43.0715 40.169 42.9381 40.3616 42.8469 40.5748C42.7558 40.788 42.7088 41.0173 42.7088 41.2491C42.7088 41.4808 42.7558 41.7102 42.8469 41.9234C42.9381 42.1365 43.0715 42.3291 43.2392 42.4896C43.4069 42.65 43.6054 42.775 43.8228 42.857C44.0401 42.9389 44.2719 42.9762 44.5041 42.9666C44.7533 42.9706 44.9996 42.9127 45.2208 42.798C45.442 42.6834 45.6311 42.5156 45.7709 42.3098L45.4179 42.1175C45.3186 42.2646 45.184 42.3847 45.0262 42.4666M47.8181 39.5315C47.5969 39.5241 47.3766 39.5638 47.172 39.648C46.9673 39.7322 46.783 39.8589 46.6313 40.0197C46.3349 40.3616 46.1717 40.7985 46.1717 41.2505C46.1717 41.7026 46.3349 42.1395 46.6313 42.4814C46.9488 42.7901 47.3747 42.9628 47.8181 42.9628C48.2615 42.9628 48.6874 42.7901 49.0049 42.4814C49.3031 42.1403 49.4674 41.7031 49.4674 41.2505C49.4674 40.798 49.3031 40.3608 49.0049 40.0197C48.8532 39.8589 48.6689 39.7322 48.4643 39.648C48.2596 39.5638 48.0394 39.5241 47.8181 39.5315ZM48.7082 42.2181C48.5939 42.3391 48.456 42.4356 48.3029 42.5016C48.1498 42.5675 47.9849 42.6016 47.8181 42.6016C47.6514 42.6016 47.4864 42.5675 47.3333 42.5016C47.1803 42.4356 47.0423 42.3391 46.928 42.2181C46.7127 41.9407 46.5959 41.5998 46.5959 41.2491C46.5959 40.8983 46.7127 40.5574 46.928 40.2801C47.0428 40.1597 47.1808 40.0639 47.3339 39.9985C47.4869 39.933 47.6516 39.8993 47.8181 39.8993C47.9846 39.8993 48.1494 39.933 48.3024 39.9985C48.4554 40.0639 48.5935 40.1597 48.7082 40.2801C48.9255 40.5566 49.0435 40.8978 49.0435 41.2491C49.0435 41.6004 48.9255 41.9415 48.7082 42.2181ZM51.9629 41.1914C52.1271 41.1579 52.2742 41.0678 52.3783 40.9369C52.4927 40.7934 52.5526 40.6142 52.5474 40.431C52.5519 40.3168 52.5317 40.203 52.4882 40.0973C52.4447 39.9917 52.3789 39.8966 52.2952 39.8185C52.1073 39.6543 51.8622 39.5704 51.6128 39.5848H50.1294V42.9075H51.6455C51.9042 42.922 52.1581 42.8337 52.3516 42.6619C52.4381 42.5776 52.5058 42.476 52.5502 42.3639C52.5947 42.2517 52.615 42.1314 52.6097 42.0109C52.6106 41.8154 52.5423 41.6257 52.4169 41.4754C52.3072 41.3259 52.1432 41.225 51.96 41.1943M50.5418 39.9546H51.5416C51.6186 39.9508 51.6956 39.9625 51.7679 39.9889C51.8403 40.0153 51.9066 40.056 51.9629 40.1085C52.013 40.159 52.0522 40.2191 52.0782 40.2853C52.1042 40.3514 52.1165 40.4221 52.1142 40.4931C52.1172 40.5639 52.1056 40.6346 52.0801 40.7008C52.0546 40.7669 52.0157 40.8272 51.9659 40.8777C51.8494 40.9806 51.697 41.0338 51.5416 41.0257H50.5418V39.9546ZM52.0252 42.3867C51.8993 42.4941 51.7368 42.5492 51.5713 42.5406H50.5507V41.3955H51.5713C51.6545 41.3903 51.738 41.402 51.8165 41.43C51.8951 41.458 51.9671 41.5016 52.0282 41.5583C52.081 41.6121 52.1223 41.6761 52.1499 41.7462C52.1774 41.8163 52.1905 41.8913 52.1884 41.9666C52.1927 42.0441 52.1803 42.1217 52.1522 42.1942C52.1241 42.2666 52.0808 42.3322 52.0252 42.3867ZM54.7964 39.5315C54.5752 39.5249 54.3552 39.5649 54.1506 39.6491C53.9461 39.7332 53.7617 39.8595 53.6096 40.0197C53.3148 40.3624 53.1528 40.799 53.1528 41.2505C53.1528 41.7021 53.3148 42.1387 53.6096 42.4814C53.9278 42.7887 54.3534 42.9605 54.7964 42.9605C55.2393 42.9605 55.6649 42.7887 55.9831 42.4814C56.2796 42.1395 56.4428 41.7026 56.4428 41.2505C56.4428 40.7985 56.2796 40.3616 55.9831 40.0197C55.8311 39.8593 55.6467 39.7329 55.4422 39.6488C55.2376 39.5646 55.0175 39.5247 54.7964 39.5315ZM55.6864 42.2181C55.5724 42.3395 55.4345 42.4364 55.2814 42.5026C55.1283 42.5688 54.9632 42.6029 54.7964 42.6029C54.6295 42.6029 54.4644 42.5688 54.3113 42.5026C54.1582 42.4364 54.0203 42.3395 53.9063 42.2181C53.689 41.9415 53.5709 41.6004 53.5709 41.2491C53.5709 40.8978 53.689 40.5566 53.9063 40.2801C54.0208 40.1594 54.1588 40.0632 54.3118 39.9975C54.4649 39.9318 54.6297 39.8979 54.7964 39.8979C54.963 39.8979 55.1278 39.9318 55.2809 39.9975C55.4339 40.0632 55.5719 40.1594 55.6864 40.2801C55.9057 40.5557 56.025 40.8972 56.025 41.2491C56.025 41.6009 55.9057 41.9424 55.6864 42.2181ZM57.0631 41.8689H58.2499V41.5405H57.0631V41.8689ZM61.65 39.5315C61.2374 39.5196 60.8363 39.6681 60.5314 39.9457C60.2294 40.2252 60.0431 40.6073 60.0093 41.0168H59.4159V39.5877H59.0035V42.9075H59.4159V41.3837H60.0093C60.0212 41.8123 60.1974 42.22 60.5018 42.5228C60.6546 42.6701 60.8355 42.7852 61.0337 42.8615C61.232 42.9377 61.4435 42.9735 61.6559 42.9666C61.8769 42.9738 62.0968 42.9343 62.3014 42.8507C62.5059 42.7671 62.6904 42.6412 62.8427 42.4814C63.1427 42.1412 63.3081 41.7036 63.3081 41.2505C63.3081 40.7975 63.1427 40.3599 62.8427 40.0197C62.6907 39.8593 62.5063 39.7329 62.3018 39.6488C62.0972 39.5646 61.8771 39.5247 61.6559 39.5315M62.546 42.2181C62.4351 42.3433 62.2978 42.4425 62.1439 42.5085C61.99 42.5745 61.8233 42.6057 61.6559 42.5997C61.4884 42.6065 61.3214 42.5758 61.1674 42.5097C61.0134 42.4436 60.8761 42.344 60.7658 42.2181C60.5486 41.9415 60.4305 41.6004 60.4305 41.2491C60.4305 40.8978 60.5486 40.5566 60.7658 40.2801C60.8803 40.1594 61.0183 40.0632 61.1714 39.9975C61.3244 39.9318 61.4893 39.8979 61.6559 39.8979C61.8225 39.8979 61.9874 39.9318 62.1404 39.9975C62.2935 40.0632 62.4315 40.1594 62.546 40.2801C62.765 40.5553 62.8842 40.8963 62.8842 41.2476C62.8842 41.5989 62.765 41.9399 62.546 42.2151M65.2726 39.5877H63.9345V42.9075H64.3469V41.5878H65.2726C65.4129 41.5938 65.5528 41.5705 65.6836 41.5196C65.8144 41.4687 65.9331 41.3911 66.0321 41.292C66.2139 41.0993 66.315 40.8448 66.315 40.5804C66.315 40.3159 66.2139 40.0614 66.0321 39.8688C65.9332 39.7686 65.814 39.6905 65.6826 39.6395C65.5512 39.5885 65.4105 39.5658 65.2696 39.5729M65.6969 41.0286C65.6332 41.0885 65.5581 41.1351 65.4761 41.1656C65.394 41.1961 65.3067 41.2099 65.2192 41.2062H64.3529V39.9546H65.2281C65.3156 39.9509 65.4029 39.9647 65.485 39.9952C65.567 40.0257 65.6421 40.0722 65.7058 40.1321C65.8254 40.2538 65.8924 40.4174 65.8924 40.5878C65.8924 40.7582 65.8254 40.9218 65.7058 41.0434M67.2842 42.1826V39.5877H66.8718V42.9075H67.2694L69.2127 40.2446V42.9075H69.6251V39.5877H69.2008L67.2842 42.1826ZM73.1795 39.5877H71.1442L70.9395 41.2565C70.9098 41.5401 70.8501 41.8197 70.7614 42.0908C70.7203 42.2371 70.638 42.3686 70.5241 42.4696C70.4187 42.535 70.298 42.5717 70.174 42.5761V43.5199H70.5894V42.9075H73.0697V43.5199H73.4851V42.5406H73.1884L73.1795 39.5877ZM72.7671 42.5465H70.8386C71.1026 42.3512 71.2718 41.9311 71.3489 41.292L71.5121 39.9605H72.7671V42.5465ZM74.4286 42.1885V39.5877H74.0132V42.9075H74.4137L76.3571 40.2446V42.9075H76.7695V39.5877H76.3452L74.4286 42.1885ZM79.4071 41.1115C79.1577 41.1904 78.8973 41.2293 78.6357 41.2269C78.5311 41.2422 78.4243 41.233 78.3239 41.1999C78.2235 41.1669 78.1323 41.111 78.0574 41.0365C77.9825 40.9621 77.926 40.8713 77.8925 40.7713C77.859 40.6713 77.8493 40.5649 77.8643 40.4605V39.5877H77.437V40.4487C77.424 40.7546 77.5303 41.0537 77.7337 41.2831C77.8494 41.3891 77.9858 41.4701 78.1344 41.521C78.283 41.572 78.4405 41.5917 78.5971 41.579C78.8689 41.5761 79.1391 41.5383 79.4012 41.4665V42.9075H79.8106V39.5877H79.3982L79.4071 41.1115ZM80.5939 42.9134H82.7775V42.5406H80.9974V41.3955H82.7301V41.0257H80.9974V39.9546H82.7775V39.5877H80.5968L80.5939 42.9134ZM85.5368 42.4725C85.3759 42.5607 85.1952 42.6065 85.0116 42.6057C84.8406 42.6096 84.6705 42.5776 84.5126 42.5119C84.3547 42.4461 84.2124 42.3481 84.0949 42.224C83.8618 41.9552 83.7336 41.6118 83.7336 41.2565C83.7336 40.9012 83.8618 40.5577 84.0949 40.2889C84.2124 40.1649 84.3547 40.0668 84.5126 40.001C84.6705 39.9353 84.8406 39.9033 85.0116 39.9073C85.1952 39.9064 85.3759 39.9522 85.5368 40.0404C85.6917 40.1251 85.8248 40.2447 85.9255 40.3895L86.2756 40.1972C86.1375 39.9902 85.9493 39.8212 85.7283 39.7059C85.5074 39.5905 85.2609 39.5326 85.0116 39.5374C84.7794 39.5278 84.5477 39.5651 84.3303 39.6471C84.113 39.7291 83.9145 39.854 83.7468 40.0145C83.5791 40.1749 83.4456 40.3675 83.3545 40.5807C83.2633 40.7939 83.2163 41.0232 83.2163 41.255C83.2163 41.4867 83.2633 41.7161 83.3545 41.9293C83.4456 42.1425 83.5791 42.335 83.7468 42.4955C83.9145 42.6559 84.113 42.7809 84.3303 42.8629C84.5477 42.9449 84.7794 42.9822 85.0116 42.9725C85.2609 42.9768 85.5074 42.919 85.7286 42.8043C85.9498 42.6896 86.1388 42.5217 86.2785 42.3157L85.9255 42.1234C85.8273 42.2704 85.6936 42.3905 85.5368 42.4725ZM89.2158 39.5936H88.7114L87.2279 41.3097V39.5936H86.8155V42.9075H87.2279V41.7831L87.5632 41.4044L88.8271 42.8838H89.3404L87.8213 41.1647L89.2158 39.5936ZM90.8031 39.5936L89.4709 42.9075H89.9457L90.2424 42.1707H91.8979L92.1946 42.9075H92.6693L91.3223 39.5877L90.8031 39.5936ZM90.3521 41.8097L91.0612 40.0345L91.7644 41.8097H90.3521ZM93.2597 39.8658C93.1617 39.9595 93.0846 40.0727 93.0334 40.1982C92.9823 40.3236 92.9583 40.4584 92.963 40.5937C92.9566 40.7187 92.9756 40.8437 93.0189 40.9612C93.0623 41.0787 93.129 41.1862 93.2152 41.2772C93.3775 41.448 93.5972 41.5533 93.8323 41.573L92.9423 42.9252H93.4259L94.2744 41.6056H94.942V42.9075H95.3544V39.5877H94.0222C93.7442 39.577 93.4728 39.6746 93.2657 39.8599M94.9479 39.9546V41.2269H94.0578C93.9707 41.2295 93.8839 41.2149 93.8024 41.1839C93.7209 41.1529 93.6464 41.1062 93.5831 41.0464C93.5206 40.9879 93.4715 40.9167 93.4393 40.8375C93.407 40.7583 93.3923 40.6731 93.3962 40.5878C93.3924 40.5031 93.4068 40.4186 93.4385 40.34C93.4703 40.2614 93.5186 40.1905 93.5802 40.1321C93.6439 40.0722 93.7189 40.0257 93.801 39.9952C93.883 39.9647 93.9704 39.9509 94.0578 39.9546H94.9479ZM100.627 39.5877H100.107L98.6239 41.3038V39.5877H98.2086V42.9075H98.6239V41.7831L98.9592 41.4044L100.223 42.8838H100.736L99.2292 41.1411L100.627 39.5877ZM102.469 39.5315C102.248 39.5241 102.028 39.5638 101.823 39.648C101.618 39.7322 101.434 39.8589 101.282 40.0197C100.986 40.3616 100.823 40.7985 100.823 41.2505C100.823 41.7026 100.986 42.1395 101.282 42.4814C101.601 42.7887 102.026 42.9605 102.469 42.9605C102.912 42.9605 103.338 42.7887 103.656 42.4814C103.952 42.1395 104.116 41.7026 104.116 41.2505C104.116 40.7985 103.952 40.3616 103.656 40.0197C103.504 39.8593 103.319 39.7329 103.115 39.6488C102.91 39.5646 102.69 39.5247 102.469 39.5315ZM103.359 42.2181C103.245 42.3395 103.107 42.4364 102.954 42.5026C102.801 42.5688 102.636 42.6029 102.469 42.6029C102.302 42.6029 102.137 42.5688 101.984 42.5026C101.831 42.4364 101.693 42.3395 101.579 42.2181C101.362 41.9415 101.244 41.6004 101.244 41.2491C101.244 40.8978 101.362 40.5566 101.579 40.2801C101.694 40.1594 101.832 40.0632 101.985 39.9975C102.138 39.9318 102.302 39.8979 102.469 39.8979C102.636 39.8979 102.801 39.9318 102.954 39.9975C103.107 40.0632 103.245 40.1594 103.359 40.2801C103.578 40.5557 103.698 40.8972 103.698 41.2491C103.698 41.6009 103.578 41.9424 103.359 42.2181ZM106.4 42.079L105.365 39.5788H104.771V42.9075H105.187V40.1765L106.314 42.9075H106.483L107.617 40.1765V42.9075H108.032V39.5877H107.439L106.4 42.079ZM108.809 42.8986H109.225V39.9398H111.171V42.8986H111.586V39.5877H108.809V42.8986ZM113.358 39.5788L112.02 42.9075H112.494L112.791 42.1707H114.45L114.746 42.9075H115.221L113.871 39.5877L113.358 39.5788ZM112.91 41.795L113.634 40.0079L114.337 41.7831L112.91 41.795ZM118.01 41.0079H116.064V39.5877H115.648V42.9075H116.064V41.3837H118.01V42.9075H118.425V39.5877H118.01V41.0079ZM119.618 42.1737V39.5877H119.206V42.9075H119.603L121.547 40.2446V42.9075H121.959V39.5877H121.535L119.618 42.1737ZM123.662 39.5788C123.384 39.5681 123.113 39.6657 122.905 39.851C122.807 39.9442 122.729 40.0574 122.678 40.1829C122.627 40.3085 122.603 40.4435 122.609 40.5789C122.602 40.7039 122.621 40.8289 122.665 40.9464C122.708 41.0639 122.775 41.1714 122.861 41.2624C123.023 41.4339 123.243 41.5393 123.478 41.5583L122.588 42.9104H123.072L123.92 41.5908H124.588V42.9075H125.003V39.5877L123.662 39.5788ZM124.585 41.218H123.695C123.518 41.2227 123.346 41.1579 123.217 41.0375C123.154 40.9791 123.105 40.9078 123.073 40.8286C123.041 40.7495 123.026 40.6643 123.03 40.5789C123.027 40.494 123.041 40.4094 123.074 40.3308C123.106 40.2521 123.155 40.1814 123.217 40.1232C123.281 40.0634 123.356 40.0168 123.438 39.9863C123.52 39.9558 123.607 39.942 123.695 39.9457H124.585V41.218ZM29.5685 32.0192H32.7164C34.2553 32.0192 35.4589 31.5734 36.3272 30.6818C36.754 30.2436 37.0886 29.7246 37.3112 29.1555C37.5339 28.5864 37.6401 27.9786 37.6237 27.368C37.6417 26.7535 37.5362 26.1418 37.3135 25.5686C37.0909 24.9954 36.7555 24.4725 36.3272 24.0305C35.4608 23.1428 34.2572 22.698 32.7164 22.6961H25.4385V36.3064H29.5685V32.0192ZM29.5685 26.288H32.1853C32.5048 26.2757 32.8189 26.3728 33.0754 26.5632C33.1927 26.6606 33.2852 26.7843 33.3456 26.9241C33.4059 27.064 33.4322 27.216 33.4225 27.368C33.435 27.5193 33.4108 27.6715 33.3519 27.8115C33.2931 27.9516 33.2013 28.0755 33.0843 28.1727C32.8278 28.3631 32.5137 28.4602 32.1942 28.4479H29.5685V26.288ZM48.3611 28.6018V36.3094H52.491V22.699H48.2365L43.4894 29.9599V22.7079H39.3594V36.3183H43.3173L48.3611 28.6018ZM59.2171 31.1108H64.1036V36.3094H68.2395V22.699H64.1007V27.5218H59.2141V22.7079H55.0812V36.3183H59.2141L59.2171 31.1108ZM78.5853 27.7644C76.8308 27.9834 75.9536 28.5682 75.9536 29.519C75.9536 30.4697 76.8269 31.0546 78.5734 31.2735L78.5853 27.7644ZM124.908 37.7681V21.5155C124.908 20.9445 124.442 20.4799 123.591 20.4799H73.5504C73.4254 20.4694 73.2996 20.4854 73.1812 20.5268C73.0628 20.5682 72.9546 20.6341 72.8635 20.7202C72.7725 20.8062 72.7007 20.9105 72.6529 21.0261C72.6051 21.1418 72.5823 21.2662 72.5861 21.3912V26.7673C72.8486 26.3947 73.1668 26.0644 73.5296 25.788C74.7005 24.8885 76.3818 24.3372 78.5734 24.134V22.7079H82.7034V24.134C84.8969 24.3313 86.5782 24.8855 87.7472 25.7969C88.32 26.2295 88.7792 26.7941 89.0856 27.4423C89.392 28.0905 89.5364 28.803 89.5065 29.519C89.5354 30.2399 89.3885 30.9571 89.0784 31.6089C88.7684 32.2608 88.3045 32.828 87.7264 33.2618C86.5396 34.1633 84.8583 34.7176 82.6826 34.9247V36.3094H78.5823V34.9247C76.3867 34.7176 74.7055 34.1633 73.5385 33.2618C73.1762 32.9825 72.8581 32.6504 72.595 32.2766V37.7681C72.595 38.043 72.7043 38.3067 72.899 38.5014C73.0936 38.696 73.3578 38.8058 73.6334 38.8066H123.881C124.157 38.8058 124.421 38.696 124.616 38.5014C124.811 38.3067 124.92 38.043 124.92 37.7681M105.068 36.3094H100.938V28.6166L95.9092 36.3094H91.9394V22.699H96.0724V29.9687L100.819 22.7079H105.071L105.068 36.3094ZM121.932 36.3094H117.802V31.1108H112.916V36.3094H108.783V22.699H112.916V27.5218H117.802V22.7079H121.941L121.932 36.3094ZM121.932 22.1073C121.932 21.8357 122.013 21.5703 122.164 21.3445C122.315 21.1188 122.53 20.9428 122.782 20.8389C123.034 20.735 123.31 20.7078 123.577 20.7608C123.844 20.8137 124.09 20.9445 124.282 21.1365C124.475 21.3285 124.606 21.5731 124.659 21.8394C124.712 22.1057 124.685 22.3818 124.581 22.6326C124.477 22.8835 124.3 23.0979 124.074 23.2488C123.847 23.3996 123.581 23.4801 123.309 23.4801C122.946 23.4786 122.598 23.3335 122.341 23.0768C122.085 22.8201 121.941 22.4725 121.941 22.1102M82.7123 27.7644V31.2735C84.4568 31.0763 85.3291 30.4914 85.3291 29.519C85.3291 28.5465 84.4568 27.9617 82.7123 27.7644ZM123.991 22.1428C124.085 22.0301 124.134 21.8867 124.128 21.7404C124.132 21.6566 124.118 21.573 124.088 21.4949C124.057 21.4169 124.01 21.3463 123.95 21.2877C123.886 21.2293 123.811 21.1842 123.73 21.1547C123.648 21.1253 123.562 21.1121 123.475 21.1161H122.585V23.1073H122.935V22.3647H123.282L123.727 23.1073H124.131L123.644 22.3262C123.773 22.3036 123.891 22.2391 123.979 22.1428M122.935 22.057V21.4208H123.425C123.515 21.4178 123.603 21.4496 123.671 21.5096C123.703 21.5388 123.727 21.5746 123.744 21.6145C123.76 21.6544 123.768 21.6973 123.766 21.7404C123.767 21.7829 123.76 21.8253 123.743 21.8646C123.727 21.9039 123.702 21.9393 123.671 21.9682C123.603 22.0282 123.515 22.0599 123.425 22.057H122.935ZM21.4153 20.5361H1.03843C0.76302 20.5361 0.498891 20.6452 0.304148 20.8395C0.109405 21.0337 0 21.2971 0 21.5717L0 41.8926C0 42.1672 0.109405 42.4306 0.304148 42.6249C0.498891 42.8191 0.76302 42.9282 1.03843 42.9282H21.4153C21.5518 42.9286 21.687 42.902 21.8132 42.8501C21.9394 42.7982 22.054 42.722 22.1505 42.6257C22.247 42.5295 22.3235 42.4152 22.3755 42.2894C22.4276 42.1635 22.4542 42.0287 22.4538 41.8926V21.5717C22.4538 21.2971 22.3444 21.0337 22.1496 20.8395C21.9549 20.6452 21.6908 20.5361 21.4153 20.5361ZM20.997 28.6314C17.6152 29.0455 14.3616 30.1775 11.4553 31.9511C9.75089 34.9156 8.60647 38.1669 8.07897 41.5435C8.04603 41.8526 7.89967 42.1388 7.66801 42.3469C7.43635 42.555 7.13573 42.6703 6.82395 42.6708C6.7746 42.675 6.72496 42.675 6.67561 42.6708C6.51117 42.652 6.35206 42.6011 6.20744 42.5208C6.06283 42.4405 5.93557 42.3325 5.83299 42.203C5.7304 42.0735 5.65452 41.925 5.60972 41.7661C5.56491 41.6072 5.55206 41.441 5.57191 41.2772C5.8402 39.404 6.29949 37.5629 6.94263 35.7827C5.26856 37.5803 3.83908 39.5898 2.69101 41.7595C2.58818 41.973 2.42696 42.1532 2.22592 42.2793C2.02488 42.4055 1.7922 42.4725 1.55467 42.4725C1.36556 42.4734 1.17878 42.4308 1.00876 42.3482C0.707676 42.2043 0.476121 41.9472 0.364882 41.6333C0.253642 41.3193 0.271799 40.9742 0.415371 40.6736C2.25465 37.1297 4.78319 33.9865 7.85348 31.4274C8.4261 30.9599 9.01059 30.5398 9.59804 30.1433C9.60419 30.1295 9.61217 30.1165 9.62178 30.1048C13.5411 23.8026 19.8785 21.0273 20.1574 20.9119C20.465 20.7805 20.8125 20.7763 21.1232 20.9003C21.434 21.0243 21.6826 21.2664 21.8144 21.5732C21.9462 21.88 21.9504 22.2265 21.826 22.5364C21.7017 22.8463 21.459 23.0942 21.1513 23.2257C18.9026 24.3078 16.8389 25.7367 15.0364 27.4597C16.8981 26.7843 18.8347 26.3353 20.8042 26.1223C20.9694 26.1097 21.1354 26.1296 21.2929 26.181C21.4504 26.2324 21.5962 26.3142 21.7219 26.4218C21.8477 26.5293 21.951 26.6605 22.0259 26.8079C22.1008 26.9553 22.1459 27.1159 22.1586 27.2807C22.1712 27.4454 22.1512 27.611 22.0997 27.7681C22.0482 27.9251 21.9662 28.0705 21.8583 28.1959C21.7504 28.3213 21.6189 28.4244 21.4711 28.4991C21.3233 28.5738 21.1622 28.6187 20.997 28.6314Z" fill="#4C4C4C"/>
</g>
<defs>
<clipPath id="clip0_55_82">
<rect width="125" height="64" fill="white"/>
</clipPath>
</defs>
</svg>
