<svg width="128" height="56" viewBox="0 0 128 56" fill="none" xmlns="http://www.w3.org/2000/svg">
<path fill-rule="evenodd" clip-rule="evenodd" d="M18.3491 4.12128C23.1344 2.16505 28.4001 1.65321 33.4802 2.65048C38.5603 3.64776 43.2267 6.10937 46.8892 9.72401L48.4324 8.20101C44.4647 4.28515 39.4094 1.61841 33.906 0.538024C28.4025 -0.542361 22.6981 0.0121327 17.5139 2.13139C12.3298 4.25064 7.89883 7.83947 4.78138 12.444C1.66393 17.0486 -8.47277e-07 22.4621 0 28C8.47278e-07 33.5379 1.66394 38.9514 4.78139 43.556C7.89884 48.1605 12.3298 51.7494 17.5139 53.8686C22.6981 55.9879 28.4025 56.5424 33.906 55.462C39.4094 54.3816 44.4647 51.7148 48.4324 47.799L46.8893 46.276C43.2267 49.8906 38.5603 52.3522 33.4802 53.3495C28.4001 54.3468 23.1344 53.8349 18.3491 51.8787C13.5637 49.9225 9.47363 46.6097 6.59598 42.3593C3.71833 38.109 2.18239 33.1119 2.18239 28C2.18239 22.8881 3.71833 17.891 6.59597 13.6407C9.47362 9.39028 13.5637 6.07751 18.3491 4.12128ZM21.3031 39.4402L21.2903 39.7635H38.3685V42.6222H18.2408V40.6272C18.2408 36.7932 19.2781 34.294 20.8041 32.5383C22.3381 30.7733 24.3926 29.7273 26.4945 28.8501C26.991 28.643 27.4927 28.4445 27.9909 28.2474C29.5757 27.6203 31.1251 27.0073 32.3565 26.1742C33.1759 25.6198 33.8736 24.9574 34.3652 24.1109C34.8577 23.2627 35.1328 22.2474 35.1328 21.0033C35.1328 19.0567 34.4525 17.4991 33.2478 16.4312C32.0475 15.3673 30.3593 14.818 28.3915 14.818C26.1239 14.818 24.2813 15.5747 23.0114 17.0544C21.7964 18.4702 21.1375 20.5108 21.0886 23.0853H18.2434C18.301 19.6778 19.3069 16.9735 21.0145 15.1096C22.7707 13.1927 25.2978 12.1333 28.3915 12.1333C31.3059 12.1333 33.6977 12.9747 35.3582 14.5081C37.0157 16.0388 37.9777 18.2898 37.9777 21.1773C37.9777 23.86 37.0058 25.5467 35.5498 26.776C34.1166 27.9861 32.2081 28.761 30.2092 29.5727L30.0144 29.6518C27.9677 30.4835 25.8464 31.3676 24.2138 32.8229C22.5634 34.294 21.4257 36.3345 21.3031 39.4402ZM105.623 17.4156H108.282L116.842 35.7418L125.402 17.4156H128L118.156 38.5844H115.497L105.623 17.4156ZM89.3509 17.4156L79.4767 38.5844H82.1363L84.8265 32.8084H96.5655L99.2557 38.5844H101.854L92.0105 17.4156H89.3509ZM90.696 20.2583L95.5261 30.6008H85.8659L90.696 20.2583ZM55.5729 21.7703V38.5844H53.1273V17.4156H55.0532L69.0238 34.1087V17.4156H71.4695V38.5844H69.5435L55.5729 21.7703Z" fill="#111111"/>
<path fill-rule="evenodd" clip-rule="evenodd" d="M21.303 39.4402L21.2903 39.7635H38.3685V42.6222H18.2407V40.6272C18.2407 36.7932 19.2781 34.294 20.8041 32.5383C22.3381 30.7733 24.3925 29.7273 26.4945 28.8501C26.9909 28.643 27.4926 28.4445 27.9908 28.2473C29.5756 27.6203 31.1251 27.0073 32.3564 26.1742C33.1758 25.6198 33.8736 24.9574 34.3651 24.1109C34.8576 23.2627 35.1327 22.2474 35.1327 21.0033C35.1327 19.0567 34.4524 17.4991 33.2477 16.4312C32.0475 15.3673 30.3593 14.818 28.3915 14.818C26.1238 14.818 24.2812 15.5747 23.0114 17.0544C21.7964 18.4702 21.1374 20.5108 21.0886 23.0853H18.2433C18.3009 19.6778 19.3068 16.9735 21.0144 15.1096C22.7707 13.1927 25.2977 12.1333 28.3915 12.1333C31.3059 12.1333 33.6977 12.9747 35.3581 14.5081C37.0157 16.0388 37.9777 18.2898 37.9777 21.1773C37.9777 23.86 37.0058 25.5467 35.5497 26.776C34.1165 27.9861 32.208 28.761 30.2091 29.5727L30.0143 29.6518C27.9676 30.4835 25.8463 31.3676 24.2137 32.8229C22.5634 34.294 21.4257 36.3345 21.303 39.4402Z" fill="#111111"/>
<path fill-rule="evenodd" clip-rule="evenodd" d="M18.3491 4.12128C23.1344 2.16505 28.4001 1.65321 33.4802 2.65048C38.5603 3.64776 43.2267 6.10937 46.8892 9.72401L48.4324 8.20101C44.4647 4.28515 39.4094 1.61841 33.906 0.538024C28.4025 -0.542361 22.6981 0.0121329 17.5139 2.13139C12.3298 4.25064 7.89883 7.83947 4.78138 12.444C1.66393 17.0486 -8.47277e-07 22.4621 0 28C8.47279e-07 33.5379 1.66394 38.9514 4.78139 43.556C7.89884 48.1605 12.3298 51.7494 17.5139 53.8686C22.6981 55.9879 28.4025 56.5424 33.906 55.462C39.4094 54.3816 44.4647 51.7148 48.4324 47.799L46.8893 46.276C43.2267 49.8906 38.5603 52.3522 33.4802 53.3495C28.4001 54.3468 23.1344 53.8349 18.3491 51.8787C13.5637 49.9225 9.47363 46.6097 6.59598 42.3593C3.71833 38.109 2.18239 33.1119 2.18239 28C2.18239 22.8881 3.71833 17.891 6.59597 13.6407C9.47362 9.39028 13.5637 6.07751 18.3491 4.12128Z" fill="#111111"/>
</svg>
