<svg width="134" height="64" viewBox="0 0 134 64" fill="none" xmlns="http://www.w3.org/2000/svg">
<g clip-path="url(#clip0_55_109)">
<path d="M77.4681 41.9157H77.5898V41.8687C77.5898 41.4784 77.365 41.3467 77.0699 41.3467C76.8358 41.3467 76.597 41.4407 76.4048 41.5772L76.2222 41.2433C76.4141 41.0834 76.7749 40.9612 77.1074 40.9612C77.7022 40.9612 78.0442 41.2903 78.0442 41.8923V43.3972H77.6179V43.1574C77.6179 43.0493 77.632 42.9694 77.632 42.9694H77.6227C77.4869 43.2421 77.1964 43.4537 76.8451 43.4537C76.4329 43.4537 76.0537 43.1951 76.0537 42.7482C76.0537 42.0004 76.9763 41.9157 77.4681 41.9157ZM76.953 43.0914C77.351 43.0914 77.5898 42.6869 77.5898 42.3343V42.245H77.4727C77.1355 42.245 76.5079 42.2732 76.5079 42.7105C76.5079 42.8986 76.6579 43.0914 76.953 43.0914Z" fill="#4C4C4C"/>
<path d="M78.7139 41.0173H79.1681V43.0021H80.2969V41.0173H80.7558V43.0021H81.0883V43.9613H80.6715V43.397H78.7139V41.0173Z" fill="#4C4C4C"/>
<path d="M81.5703 41.0173H82.0059V42.4376C82.0059 42.5645 81.9966 42.7339 81.9918 42.7575H82.0011C82.0198 42.715 82.1323 42.5506 82.2119 42.4376L83.233 41.0173H83.6732V43.397H83.233V41.9768C83.233 41.8639 83.2471 41.6993 83.2471 41.6616H83.2378C83.2237 41.704 83.1068 41.8639 83.0318 41.9768L82.0061 43.397H81.5705V41.0173H81.5703Z" fill="#4C4C4C"/>
<path d="M85.4907 40.9612C86.198 40.9612 86.7693 41.4831 86.7693 42.2027C86.7693 42.9269 86.198 43.4536 85.4954 43.4536C84.7881 43.4536 84.2168 42.9268 84.2168 42.2027C84.2168 41.4831 84.7881 40.9612 85.4907 40.9612ZM85.4954 43.0585C85.9403 43.0585 86.3104 42.701 86.3104 42.2026C86.3104 41.7087 85.9405 41.356 85.4954 41.356C85.0458 41.356 84.6805 41.7087 84.6805 42.2026C84.6805 42.701 85.0458 43.0585 85.4954 43.0585Z" fill="#4C4C4C"/>
<path d="M87.3169 41.0173H87.7713V41.9863H88.9703V41.0173H89.4245V43.397H88.9703V42.3765H87.7713V43.397H87.3169V41.0173Z" fill="#4C4C4C"/>
<path d="M91.3446 41.9157H91.4664V41.8687C91.4664 41.4784 91.2416 41.3467 90.9466 41.3467C90.7124 41.3467 90.4736 41.4407 90.2814 41.5772L90.0988 41.2433C90.2908 41.0834 90.6515 40.9612 90.984 40.9612C91.5788 40.9612 91.9206 41.2903 91.9206 41.8923V43.3972H91.4944V43.1574C91.4944 43.0493 91.5084 42.9694 91.5084 42.9694H91.4991C91.3632 43.2421 91.0729 43.4537 90.7216 43.4537C90.3095 43.4537 89.9302 43.1951 89.9302 42.7482C89.9302 42.0004 90.853 41.9157 91.3446 41.9157ZM90.8294 43.0914C91.2274 43.0914 91.4664 42.6869 91.4664 42.3343V42.245H91.3493C91.0121 42.245 90.3845 42.2732 90.3845 42.7105C90.3845 42.8986 90.5345 43.0914 90.8294 43.0914Z" fill="#4C4C4C"/>
<path d="M92.333 43.0114C92.6795 42.9596 92.8669 42.6117 92.8669 41.751V41.0173H94.4547V43.397H94.0005V41.3936H93.3027V41.751C93.3027 42.8279 93.031 43.3829 92.3332 43.4204V43.0114H92.333Z" fill="#4C4C4C"/>
<path d="M95.1567 41.0173H95.6111V41.878H96.0887C96.5804 41.878 96.9505 42.1037 96.9505 42.6446C96.9505 43.0913 96.6788 43.397 96.0794 43.397H95.1567V41.0173ZM96.0186 43.0679C96.3463 43.0679 96.487 42.8892 96.487 42.6399C96.487 42.386 96.3465 42.2072 96.0186 42.2072H95.6111V43.0679H96.0186Z" fill="#4C4C4C"/>
<path d="M97.4375 41.0173H97.8917V41.9863H99.0906V41.0173H99.5451V43.397H99.0906V42.3765H97.8917V43.397H97.4375V41.0173Z" fill="#4C4C4C"/>
<path d="M101.465 41.9157H101.587V41.8687C101.587 41.4784 101.363 41.3467 101.067 41.3467C100.833 41.3467 100.595 41.4407 100.403 41.5772L100.22 41.2433C100.412 41.0834 100.772 40.9612 101.105 40.9612C101.7 40.9612 102.042 41.2903 102.042 41.8923V43.3972H101.615V43.1574C101.615 43.0493 101.63 42.9694 101.63 42.9694H101.62C101.484 43.2421 101.194 43.4537 100.843 43.4537C100.431 43.4537 100.051 43.1951 100.051 42.7482C100.051 42.0004 100.974 41.9157 101.465 41.9157ZM100.95 43.0914C101.348 43.0914 101.587 42.6869 101.587 42.3343V42.245H101.47C101.133 42.245 100.505 42.2732 100.505 42.7105C100.505 42.8986 100.655 43.0914 100.95 43.0914Z" fill="#4C4C4C"/>
<path d="M103.02 42.6069C103.072 42.5222 103.128 42.4611 103.128 42.4611V42.4564C102.856 42.381 102.613 42.1271 102.613 41.7651C102.613 41.276 102.959 41.0173 103.46 41.0173H104.406V43.397H103.952V42.5363H103.554L102.973 43.397H102.472L103.02 42.6069ZM103.952 42.2025V41.3325H103.573C103.268 41.3325 103.072 41.4547 103.072 41.7604C103.072 42.0567 103.282 42.2023 103.559 42.2023H103.952V42.2025Z" fill="#4C4C4C"/>
<path d="M73.9881 47.5589H74.1098V47.5119C74.1098 47.1216 73.885 46.9899 73.59 46.9899C73.3558 46.9899 73.117 47.0839 72.9248 47.2203L72.7422 46.8863C72.9341 46.7264 73.2949 46.6042 73.6274 46.6042C74.2222 46.6042 74.5642 46.9333 74.5642 47.5353V49.0403H74.1379V48.8004C74.1379 48.6923 74.152 48.6124 74.152 48.6124H74.1427C74.0069 48.8851 73.7164 49.0968 73.3651 49.0968C72.9529 49.0968 72.5737 48.8381 72.5737 48.3912C72.5737 47.6435 73.4965 47.5589 73.9881 47.5589ZM73.473 48.7344C73.8711 48.7344 74.1098 48.33 74.1098 47.9773V47.888H73.9927C73.6555 47.888 73.0279 47.9162 73.0279 48.3536C73.0279 48.5416 73.1779 48.7344 73.473 48.7344Z" fill="#4C4C4C"/>
<path d="M76.3487 46.6042C76.6624 46.6042 77.0139 46.7125 77.2387 46.9522L77.0232 47.2719C76.8639 47.1121 76.6157 46.9992 76.3675 46.9992C75.8898 46.9992 75.5433 47.3612 75.5433 47.8456C75.5433 48.33 75.8898 48.7015 76.3817 48.7015C76.644 48.7015 76.9297 48.5744 77.1124 48.3817L77.295 48.7156C77.0797 48.9461 76.719 49.0966 76.3489 49.0966C75.5996 49.0966 75.0796 48.5652 75.0796 47.8505C75.0796 47.145 75.604 46.6042 76.3487 46.6042Z" fill="#4C4C4C"/>
<path d="M78.8448 46.6042C79.1587 46.6042 79.51 46.7125 79.7348 46.9522L79.5193 47.2719C79.36 47.1121 79.1118 46.9992 78.8636 46.9992C78.3859 46.9992 78.0394 47.3612 78.0394 47.8456C78.0394 48.33 78.3859 48.7015 78.8777 48.7015C79.1399 48.7015 79.4257 48.5744 79.6083 48.3817L79.791 48.7156C79.5755 48.9461 79.2149 49.0966 78.8448 49.0966C78.0956 49.0966 77.5757 48.5652 77.5757 47.8505C77.5757 47.145 78.1001 46.6042 78.8448 46.6042Z" fill="#4C4C4C"/>
<path d="M81.3457 46.6042C82.0529 46.6042 82.6243 47.1261 82.6243 47.8458C82.6243 48.57 82.0529 49.0966 81.3504 49.0966C80.6431 49.0966 80.0718 48.5698 80.0718 47.8458C80.0718 47.1261 80.6433 46.6042 81.3457 46.6042ZM81.3504 48.7017C81.7953 48.7017 82.1653 48.3442 82.1653 47.8458C82.1653 47.3519 81.7953 46.9992 81.3504 46.9992C80.9008 46.9992 80.5355 47.3519 80.5355 47.8458C80.5355 48.3442 80.9009 48.7017 81.3504 48.7017Z" fill="#4C4C4C"/>
<path d="M83.1724 46.6606H83.6266V48.6451H84.7554V46.6606H85.2143V48.6451H85.5468V49.6046H85.13V49.0402H83.1724V46.6606Z" fill="#4C4C4C"/>
<path d="M86.0288 46.6606H86.4644V48.0808C86.4644 48.2078 86.4551 48.3771 86.4503 48.4007H86.4596C86.4783 48.3583 86.5908 48.1938 86.6704 48.0808L87.6915 46.6606H88.1317V49.0402H87.6915V47.62C87.6915 47.5071 87.7056 47.3425 87.7056 47.3048H87.6963C87.6822 47.3473 87.5653 47.5071 87.4903 47.62L86.4645 49.0402H86.0288V46.6606Z" fill="#4C4C4C"/>
<path d="M90.0472 47.5589H90.1691V47.5119C90.1691 47.1216 89.9443 46.9899 89.6492 46.9899C89.4151 46.9899 89.1762 47.0839 88.9841 47.2203L88.8014 46.8863C88.9934 46.7264 89.3541 46.6042 89.6866 46.6042C90.2813 46.6042 90.6233 46.9333 90.6233 47.5353V49.0403H90.197V48.8004C90.197 48.6923 90.2111 48.6124 90.2111 48.6124H90.2018C90.0658 48.8851 89.7755 49.0968 89.4242 49.0968C89.0122 49.0968 88.6328 48.8381 88.6328 48.3912C88.6328 47.6435 89.5556 47.5589 90.0472 47.5589ZM89.5321 48.7344C89.9302 48.7344 90.1691 48.33 90.1691 47.9773V47.888H90.0519C89.7147 47.888 89.0872 47.9162 89.0872 48.3536C89.0872 48.5416 89.237 48.7344 89.5321 48.7344Z" fill="#4C4C4C"/>
<path d="M91.293 46.6606H91.7473V48.6451H92.876V46.6606H93.3351V48.6451H93.6676V49.6046H93.2508V49.0402H91.293V46.6606Z" fill="#4C4C4C"/>
<path d="M94.1499 46.6606H94.5855V48.0808C94.5855 48.2078 94.5762 48.3771 94.5714 48.4007H94.5807C94.5994 48.3583 94.7118 48.1938 94.7915 48.0808L95.8126 46.6606H96.2528V49.0402H95.8126V47.62C95.8126 47.5071 95.8265 47.3425 95.8265 47.3048H95.8172C95.8031 47.3473 95.6862 47.5071 95.6112 47.62L94.5855 49.0402H94.1499V46.6606Z" fill="#4C4C4C"/>
<path d="M97.2599 48.2502C97.3114 48.1655 97.3676 48.1044 97.3676 48.1044V48.0996C97.0959 48.0243 96.8524 47.7704 96.8524 47.4084C96.8524 46.9192 97.199 46.6606 97.7 46.6606H98.6462V49.0402H98.1918V48.1796H97.7938L97.213 49.0402H96.7119L97.2599 48.2502ZM98.1918 47.8457V46.9758H97.8125C97.5081 46.9758 97.3114 47.0979 97.3114 47.4038C97.3114 47.7001 97.5221 47.8457 97.7986 47.8457H98.1918Z" fill="#4C4C4C"/>
<path d="M73.3418 52.694H72.5176V52.3038H74.6205V52.694H73.7915V54.6833H73.3418V52.694Z" fill="#4C4C4C"/>
<path d="M75.0654 52.3037H75.487V52.5153C75.487 52.6141 75.4729 52.694 75.4729 52.694H75.4824C75.6322 52.4072 75.932 52.2473 76.2785 52.2473C76.9203 52.2473 77.3183 52.7551 77.3183 53.4934C77.3183 54.2505 76.8687 54.7397 76.2459 54.7397C75.9462 54.7397 75.6745 54.5891 75.5105 54.3352H75.5012C75.5012 54.3352 75.5198 54.4199 75.5198 54.5421V55.6238H75.0656V52.3037H75.0654ZM76.1754 54.3447C76.5502 54.3447 76.8592 54.0391 76.8592 53.4982C76.8592 52.9809 76.5829 52.647 76.1895 52.647C75.8335 52.647 75.5056 52.9011 75.5056 53.5029C75.5056 53.9262 75.7399 54.3447 76.1754 54.3447Z" fill="#4C4C4C"/>
<path d="M79.098 53.202H79.2197V53.155C79.2197 52.7646 78.9949 52.6329 78.6998 52.6329C78.4657 52.6329 78.2268 52.7269 78.0347 52.8634L77.852 52.5294C78.044 52.3695 78.4047 52.2473 78.7372 52.2473C79.3321 52.2473 79.6741 52.5764 79.6741 53.1784V54.6832H79.2478V54.4433C79.2478 54.3352 79.2618 54.2553 79.2618 54.2553H79.2525C79.1168 54.528 78.8263 54.7397 78.475 54.7397C78.0628 54.7397 77.6836 54.481 77.6836 54.0341C77.6836 53.2867 78.6062 53.202 79.098 53.202ZM78.5828 54.3777C78.981 54.3777 79.2197 53.9732 79.2197 53.6205V53.5313H79.1025C78.7653 53.5313 78.1378 53.5594 78.1378 53.9968C78.1378 54.1849 78.2878 54.3777 78.5828 54.3777Z" fill="#4C4C4C"/>
<path d="M80.3433 52.3036H80.7975V53.2726H81.9965V52.3036H82.4507V54.6833H81.9965V53.6628H80.7975V54.6833H80.3433V52.3036Z" fill="#4C4C4C"/>
<path d="M84.2682 52.2473C84.5819 52.2473 84.9333 52.3554 85.1581 52.5952L84.9426 52.915C84.7833 52.7551 84.5351 52.6423 84.287 52.6423C83.8092 52.6423 83.4627 53.0043 83.4627 53.4887C83.4627 53.973 83.8092 54.3446 84.301 54.3446C84.5632 54.3446 84.849 54.2174 85.0317 54.0248L85.2143 54.3587C84.999 54.5891 84.6382 54.7397 84.2683 54.7397C83.5191 54.7397 82.999 54.2083 82.999 53.4936C82.9989 52.788 83.5235 52.2473 84.2682 52.2473Z" fill="#4C4C4C"/>
<path d="M86.7834 52.2521V51.3916H87.2189V52.2521C87.9541 52.2804 88.4975 52.7601 88.4975 53.489C88.4975 54.2227 87.9543 54.7069 87.2189 54.7398V55.6239H86.7834V54.7398C86.048 54.7069 85.5 54.2225 85.5 53.489C85.5 52.7601 86.048 52.2803 86.7834 52.2521ZM86.7834 54.3588V52.6282C86.2962 52.6564 85.9496 52.9715 85.9496 53.4888C85.9496 54.0014 86.2962 54.3259 86.7834 54.3588ZM88.0525 53.4888C88.0525 52.9715 87.7012 52.6565 87.2189 52.6282V54.3588C87.7012 54.3259 88.0525 54.0014 88.0525 53.4888Z" fill="#4C4C4C"/>
<path d="M90.0848 52.2473C90.7545 52.2473 91.1105 52.7505 91.1105 53.3619C91.1105 53.423 91.101 53.4888 91.0917 53.5547H89.3682C89.3917 54.0672 89.757 54.3447 90.1831 54.3447C90.436 54.3447 90.6937 54.2366 90.8809 54.0672L91.0729 54.4011C90.8433 54.6127 90.4828 54.7397 90.155 54.7397C89.4103 54.7397 88.895 54.1988 88.895 53.4936C88.895 52.7364 89.4102 52.2473 90.0848 52.2473ZM90.6514 53.2256C90.6373 52.8166 90.3844 52.6002 90.0753 52.6002C89.7242 52.6002 89.4477 52.8305 89.3822 53.2256H90.6514Z" fill="#4C4C4C"/>
<path d="M91.6587 52.3037H92.0802V52.5153C92.0802 52.6141 92.0662 52.694 92.0662 52.694H92.0756C92.2255 52.4072 92.5253 52.2473 92.8718 52.2473C93.5134 52.2473 93.9116 52.7551 93.9116 53.4934C93.9116 54.2505 93.4619 54.7397 92.839 54.7397C92.5393 54.7397 92.2676 54.5891 92.1037 54.3352H92.0944C92.0944 54.3352 92.1132 54.4199 92.1132 54.5421V55.6238H91.6589V52.3037H91.6587ZM92.7687 54.3447C93.1435 54.3447 93.4525 54.0391 93.4525 53.4982C93.4525 52.9809 93.1762 52.647 92.7828 52.647C92.4267 52.647 92.0988 52.9011 92.0988 53.5029C92.0988 53.9262 92.3331 54.3447 92.7687 54.3447Z" fill="#4C4C4C"/>
<path d="M95.6907 53.202H95.8125V53.155C95.8125 52.7646 95.5876 52.6329 95.2926 52.6329C95.0585 52.6329 94.8196 52.7269 94.6275 52.8634L94.4448 52.5294C94.6368 52.3695 94.9975 52.2473 95.33 52.2473C95.9249 52.2473 96.2668 52.5764 96.2668 53.1784V54.6832H95.8406V54.4433C95.8406 54.3352 95.8546 54.2553 95.8546 54.2553H95.8453C95.7095 54.528 95.419 54.7397 95.0678 54.7397C94.6556 54.7397 94.2764 54.481 94.2764 54.0341C94.2764 53.2867 95.199 53.202 95.6907 53.202ZM95.1756 54.3777C95.5736 54.3777 95.8125 53.9732 95.8125 53.6205V53.5313H95.6953C95.3581 53.5313 94.7306 53.5594 94.7306 53.9968C94.7306 54.1849 94.8805 54.3777 95.1756 54.3777Z" fill="#4C4C4C"/>
<path d="M98.6789 52.694H97.8545V52.3038H99.9574V52.694H99.1284V54.6833H98.6789V52.694Z" fill="#4C4C4C"/>
<path d="M101.358 52.2473C102.027 52.2473 102.383 52.7505 102.383 53.3619C102.383 53.423 102.374 53.4888 102.364 53.5547H100.641C100.664 54.0672 101.03 54.3447 101.456 54.3447C101.709 54.3447 101.966 54.2366 102.154 54.0672L102.346 54.4011C102.116 54.6127 101.756 54.7397 101.428 54.7397C100.683 54.7397 100.168 54.1988 100.168 53.4936C100.168 52.7364 100.683 52.2473 101.358 52.2473ZM101.924 53.2256C101.91 52.8166 101.657 52.6002 101.348 52.6002C100.997 52.6002 100.721 52.8305 100.655 53.2256H101.924Z" fill="#4C4C4C"/>
<path d="M103.451 53.4606L102.688 52.3036H103.207L103.648 53.0278C103.68 53.0889 103.723 53.1689 103.723 53.1689H103.732C103.732 53.1689 103.779 53.0889 103.812 53.0278L104.252 52.3036H104.772L104.008 53.4606L104.818 54.6833H104.303L103.807 53.8885C103.769 53.832 103.732 53.7615 103.732 53.7615H103.723C103.723 53.7615 103.69 53.832 103.652 53.8885L103.156 54.6833H102.641L103.451 53.4606Z" fill="#4C4C4C"/>
<path d="M105.25 52.3036H105.704V53.2726H106.903V52.3036H107.357V54.6833H106.903V53.6628H105.704V54.6833H105.25V52.3036Z" fill="#4C4C4C"/>
<path d="M109.179 52.2475C109.886 52.2475 110.458 52.7694 110.458 53.489C110.458 54.2132 109.886 54.74 109.184 54.74C108.477 54.74 107.905 54.2132 107.905 53.489C107.905 52.7694 108.477 52.2475 109.179 52.2475ZM109.184 54.3447C109.629 54.3447 109.999 53.9873 109.999 53.4888C109.999 52.995 109.629 52.6423 109.184 52.6423C108.734 52.6423 108.369 52.995 108.369 53.4888C108.369 53.9873 108.734 54.3447 109.184 54.3447Z" fill="#4C4C4C"/>
<path d="M110.682 54.2977C111.029 54.2459 111.216 53.898 111.216 53.0373V52.3036H112.804V54.6833H112.349V52.6799H111.651V53.0373C111.651 54.1142 111.38 54.6692 110.682 54.7067V54.2977H110.682Z" fill="#4C4C4C"/>
<path d="M114.625 52.2475C115.333 52.2475 115.904 52.7694 115.904 53.489C115.904 54.2132 115.333 54.74 114.63 54.74C113.923 54.74 113.352 54.2132 113.352 53.489C113.352 52.7694 113.923 52.2475 114.625 52.2475ZM114.63 54.3447C115.075 54.3447 115.445 53.9873 115.445 53.4888C115.445 52.995 115.075 52.6423 114.63 52.6423C114.181 52.6423 113.815 52.995 113.815 53.4888C113.815 53.9873 114.181 54.3447 114.63 54.3447Z" fill="#4C4C4C"/>
<path d="M116.452 52.3036H117.937V52.694H116.907V54.6833H116.452V52.3036Z" fill="#4C4C4C"/>
<path d="M118.386 52.3036H118.822V53.7239C118.822 53.8508 118.812 54.0202 118.808 54.0438H118.817C118.836 54.0013 118.948 53.8369 119.028 53.7239L120.049 52.3036H120.489V54.6833H120.049V53.2631C120.049 53.1502 120.063 52.9856 120.063 52.9479H120.054C120.04 52.9903 119.922 53.1502 119.848 53.2631L118.822 54.6833H118.386V52.3036H118.386Z" fill="#4C4C4C"/>
<path d="M121.187 52.3039H121.623V53.7241C121.623 53.8511 121.613 54.0204 121.609 54.044H121.618C121.637 54.0016 121.749 53.8371 121.829 53.7241L122.85 52.3039H123.29V54.6835H122.85V53.2633C122.85 53.1504 122.864 52.9858 122.864 52.9483H122.854C122.84 52.9907 122.723 53.1506 122.648 53.2633L121.623 54.6835H121.187V52.3039ZM121.538 51.4291V51.3585H121.903V51.4244C121.903 51.6314 122.067 51.7348 122.231 51.7348C122.395 51.7348 122.564 51.6314 122.564 51.4198V51.3587H122.924V51.4293C122.924 51.8149 122.597 52.0313 122.231 52.0313C121.871 52.0311 121.538 51.8147 121.538 51.4291Z" fill="#4C4C4C"/>
<path d="M72.855 40.077H73.3187V41.5349H75.0376V40.077H75.4965V43.397H75.0376V41.9393H73.3187V43.397H72.855V40.077Z" fill="#4C4C4C"/>
<path d="M73.0137 15.8025H74.1604V24.6119H86.0007V15.8025H87.1472V34.5461H86.0007V25.683H74.1604V34.5461H73.0137V15.8025Z" fill="#4C4C4C"/>
<path d="M96.6404 15.8025H97.8671L104.854 34.5461H103.627L101.2 28.0662H93.2803L90.8801 34.5461H89.6533L96.6404 15.8025ZM100.8 26.9951L97.9737 19.3906C97.6804 18.5873 97.2803 17.1414 97.2803 17.1414H97.227C97.227 17.1414 96.827 18.5873 96.5336 19.3906L93.6803 26.9951H100.8Z" fill="#4C4C4C"/>
<path d="M109.227 16.8734H102.267V15.8025H117.334V16.8734H110.374V34.5461H109.227V16.8734Z" fill="#4C4C4C"/>
<path d="M125.787 16.8734H118.827V15.8025H133.894V16.8734H126.934V34.5461H125.787V16.8734Z" fill="#4C4C4C"/>
<path d="M0 49.8808V56.7744L7.72674 58.4984L9.76191 57.0181L0 49.8808Z" fill="#4C4C4C"/>
<path d="M0 64.1185L7.55796 58.6211L0 56.9346V64.1185Z" fill="#4C4C4C"/>
<path d="M28.1908 34.8586L21.7778 37.7103L26.7261 44.8525L34.3013 39.3208L28.1908 34.8586Z" fill="#4C4C4C"/>
<path d="M11.1641 22.6644V42.2588L21.5422 37.644L11.1641 22.6644Z" fill="#4C4C4C"/>
<path d="M28.0452 34.7523L11.2124 22.46L21.6873 37.5795L28.0452 34.7523Z" fill="#4C4C4C"/>
<path d="M11.1641 42.4299V56.2167L26.6001 44.9446L21.6327 37.7748L11.1641 42.4299Z" fill="#4C4C4C"/>
<path d="M25.1865 29.4647L37.3164 38.3226L43.1839 16.322L25.1865 29.4647Z" fill="#4C4C4C"/>
<path d="M43.3842 16.1758L37.4512 38.4213L48.3236 46.3608V12.5688L43.3842 16.1758Z" fill="#4C4C4C"/>
<path d="M52.4146 23.3641L54.0595 28.7322L56.9125 26.6487L52.4146 23.3641Z" fill="#4C4C4C"/>
<path d="M51.1284 22.4248V30.8727L53.9264 28.8294L52.2046 23.2106L51.1284 22.4248Z" fill="#4C4C4C"/>
<path d="M51.1284 18.4276L57.3605 10.6053V4.384L51.1284 -0.167236V18.4276Z" fill="#4C4C4C"/>
<path d="M60.6206 6.76434L57.5166 10.6603V15.6479L65.1511 10.0727L60.6206 6.76434Z" fill="#4C4C4C"/>
<path d="M57.5166 4.49768V10.4098L60.4945 6.67232L57.5166 4.49768Z" fill="#4C4C4C"/>
<path d="M51.1284 20.3129L57.3605 15.7616V10.8558L51.1284 18.6781V20.3129Z" fill="#4C4C4C"/>
</g>
<defs>
<clipPath id="clip0_55_109">
<rect width="134" height="64" fill="white"/>
</clipPath>
</defs>
</svg>
