<svg width="92" height="64" viewBox="0 0 92 64" fill="none" xmlns="http://www.w3.org/2000/svg">
<path d="M60.8121 51.7647C58.8801 51.7647 57.0401 51.4824 55.2001 50.9177C55.3841 50.9177 55.6601 50.8236 55.8441 50.8236C58.0521 46.9647 60.6281 43.953 63.1121 41.5059H48.3921C46.6441 43.2 45.6321 44.2353 45.6321 44.2353C43.4241 47.153 40.4801 49.3177 37.0761 50.6353C35.0521 51.3883 32.8441 51.7647 30.6361 51.7647C23.3681 51.7647 17.0201 47.6236 13.8001 41.5059C13.8921 41.5059 13.8921 41.5059 13.9841 41.5059H2.39209C6.34809 53.8353 17.5721 62.6824 30.9121 62.6824C36.4321 62.6824 41.5841 61.1765 46.0001 58.5412C50.4161 61.1765 55.5681 62.6824 61.0881 62.6824C74.4281 62.6824 85.7441 53.7412 89.6081 41.5059H77.6481C74.4281 47.6236 68.0801 51.7647 60.8121 51.7647Z" fill="#4C4C4C"/>
<path d="M30.728 12.7059C32.568 12.7059 34.408 12.9883 36.156 13.4589C35.144 15.153 32.66 19.1059 28.244 22.9647H43.792C44.436 22.1177 45.172 21.1765 45.816 20.2353C48.116 17.1295 51.336 14.8706 55.016 13.6471C56.856 12.9883 58.788 12.7059 60.904 12.7059C68.172 12.7059 74.52 16.8471 77.74 22.9647H89.792C86.02 10.4471 74.612 1.31769 61.088 1.31769C55.568 1.31769 50.416 2.82357 46 5.45886C41.584 2.82357 36.432 1.31769 30.912 1.31769C17.388 1.31769 5.98001 10.4471 2.20801 22.9647H13.892C17.112 16.8471 23.46 12.7059 30.728 12.7059Z" fill="#4C4C4C"/>
<path opacity="0.34" d="M71.4841 35.4824C71.3001 35.5765 71.1161 35.6706 70.9321 35.7647C71.1161 35.7647 71.3001 35.7647 71.4841 35.6706V35.4824Z" fill="#4C4C4C"/>
<path opacity="0.14" d="M39.744 27.5765C39.1 28.2353 38.364 28.8941 37.72 29.553C37.352 29.8353 37.076 30.1177 36.708 30.4C35.696 31.3412 34.592 32.0941 33.58 32.8471C33.212 33.1294 32.844 33.3177 32.568 33.6C31.648 34.2588 30.728 34.8235 29.9 35.2941C29.716 35.3883 29.532 35.4824 29.44 35.5765H29.348C22.356 39.7177 16.192 41.0353 14.168 41.3177H48.576C50.324 39.6236 52.716 37.4588 55.752 35.1059C58.236 33.1294 61.088 31.0588 64.216 29.0824C68.448 26.4471 73.14 24.0941 77.832 22.9647C77.832 22.8706 77.74 22.8706 77.74 22.7765H43.792C42.504 24.6588 41.124 26.1647 39.744 27.5765Z" fill="#4C4C4C"/>
<path d="M89.7919 22.9647H77.6479C77.6479 23.0588 77.7399 23.0588 77.7399 23.153C73.0479 24.3765 68.3559 26.6353 64.1239 29.2706C61.0879 31.153 58.1439 33.3177 55.6599 35.2941C52.7159 37.6471 50.2319 39.9059 48.4839 41.5059H63.2039C65.7799 39.0588 68.4479 37.1765 70.8399 35.8588C71.0239 35.7647 71.2079 35.6706 71.3919 35.5765C76.2679 32.9412 79.9479 32.2824 79.9479 32.2824C79.9479 35.6706 79.1199 38.7765 77.6479 41.6H89.6079C90.5279 38.5883 91.0799 35.3882 91.0799 32.0941C91.0799 28.8941 90.6199 25.7883 89.7919 22.9647Z" fill="white"/>
<path opacity="0.3" d="M89.7919 22.9647H77.6479C77.6479 23.0588 77.7399 23.0588 77.7399 23.153C73.0479 24.3765 68.3559 26.6353 64.1239 29.2706C61.0879 31.153 58.1439 33.3177 55.6599 35.2941C52.7159 37.6471 50.2319 39.9059 48.4839 41.5059H63.2039C65.7799 39.0588 68.4479 37.1765 70.8399 35.8588C71.0239 35.7647 71.2079 35.6706 71.3919 35.5765C76.2679 32.9412 79.9479 32.2824 79.9479 32.2824C79.9479 35.6706 79.1199 38.7765 77.6479 41.6H89.6079C90.5279 38.5883 91.0799 35.3882 91.0799 32.0941C91.0799 28.8941 90.6199 25.7883 89.7919 22.9647Z" fill="#888888"/>
<path d="M33.3041 32.8471L32.8441 30.8706C32.8441 30.8706 33.0281 30.8706 33.2121 30.8706C33.3961 30.8706 33.5801 30.8706 33.7641 30.6824C33.8561 30.5883 33.9481 30.4 33.9481 30.1177C33.9481 29.9294 33.9481 29.7412 33.7641 29.6471C33.5801 29.553 33.3961 29.553 33.3041 29.553C33.2121 29.553 32.9361 29.553 32.6601 29.6471C32.5681 30.1177 32.5681 30.4942 32.5681 31.3412C32.5681 32.2824 32.5681 32.9412 32.4761 33.6C32.8441 33.3177 33.2121 33.1295 33.4881 32.8471C33.4881 32.9412 33.3961 32.9412 33.3041 32.8471Z" fill="white"/>
<path opacity="0.34" d="M33.3041 32.8471L32.8441 30.8706C32.8441 30.8706 33.0281 30.8706 33.2121 30.8706C33.3961 30.8706 33.5801 30.8706 33.7641 30.6824C33.8561 30.5883 33.9481 30.4 33.9481 30.1177C33.9481 29.9294 33.9481 29.7412 33.7641 29.6471C33.5801 29.553 33.3961 29.553 33.3041 29.553C33.2121 29.553 32.9361 29.553 32.6601 29.6471C32.5681 30.1177 32.5681 30.4942 32.5681 31.3412C32.5681 32.2824 32.5681 32.9412 32.4761 33.6C32.8441 33.3177 33.2121 33.1295 33.4881 32.8471C33.4881 32.9412 33.3961 32.9412 33.3041 32.8471Z" fill="#4C4C4C"/>
<path d="M29.2559 35.7647C29.3479 35.7647 29.3479 35.7647 29.2559 35.7647C29.5319 35.5765 29.6239 35.4824 29.8079 35.3882C30.7279 34.8235 31.5559 34.2588 32.4759 33.6941C32.4759 33.1294 32.4759 32.3765 32.5679 31.4353C32.5679 30.5882 32.5679 30.2118 32.6599 29.7412C32.9359 29.6471 33.1199 29.6471 33.3039 29.6471C33.3959 29.6471 33.5799 29.6471 33.7639 29.7412C33.9479 29.8353 33.9479 30.0235 33.9479 30.2118C33.9479 30.4941 33.8559 30.6824 33.7639 30.7765C33.5799 30.8706 33.3959 30.9647 33.2119 30.9647C33.0279 30.9647 32.8439 30.9647 32.8439 30.9647L33.3039 32.9412C33.3959 32.9412 33.4879 32.9412 33.5799 32.9412C34.5919 32.1882 35.6959 31.3412 36.7079 30.4941C37.0759 30.2118 37.3519 29.9294 37.7199 29.6471C38.3639 28.9882 39.0999 28.4235 39.7439 27.6706C41.1239 26.2588 42.5039 24.753 43.7919 23.0588H28.2439C24.2879 26.5412 18.7679 29.9294 11.6839 31.5294C11.7759 28.4235 12.6039 25.6 13.9839 23.0588H2.20792C1.37992 25.7882 0.919922 28.8941 0.919922 32C0.919922 35.2941 1.47192 38.4941 2.39192 41.5059H14.1679C16.1919 41.1294 22.2639 39.8118 29.2559 35.7647Z" fill="white"/>
<path opacity="0.3" d="M29.2559 35.7647C29.3479 35.7647 29.3479 35.7647 29.2559 35.7647C29.5319 35.5765 29.6239 35.4824 29.8079 35.3882C30.7279 34.8235 31.5559 34.2588 32.4759 33.6941C32.4759 33.1294 32.4759 32.3765 32.5679 31.4353C32.5679 30.5882 32.5679 30.2118 32.6599 29.7412C32.9359 29.6471 33.1199 29.6471 33.3039 29.6471C33.3959 29.6471 33.5799 29.6471 33.7639 29.7412C33.9479 29.8353 33.9479 30.0235 33.9479 30.2118C33.9479 30.4941 33.8559 30.6824 33.7639 30.7765C33.5799 30.8706 33.3959 30.9647 33.2119 30.9647C33.0279 30.9647 32.8439 30.9647 32.8439 30.9647L33.3039 32.9412C33.3959 32.9412 33.4879 32.9412 33.5799 32.9412C34.5919 32.1882 35.6959 31.3412 36.7079 30.4941C37.0759 30.2118 37.3519 29.9294 37.7199 29.6471C38.3639 28.9882 39.0999 28.4235 39.7439 27.6706C41.1239 26.2588 42.5039 24.753 43.7919 23.0588H28.2439C24.2879 26.5412 18.7679 29.9294 11.6839 31.5294C11.7759 28.4235 12.6039 25.6 13.9839 23.0588H2.20792C1.37992 25.7882 0.919922 28.8941 0.919922 32C0.919922 35.2941 1.47192 38.4941 2.39192 41.5059H14.1679C16.1919 41.1294 22.2639 39.8118 29.2559 35.7647Z" fill="#888888"/>
<path d="M29.3478 35.6706C28.9798 34.5412 28.7038 33.8824 28.2438 32.4706C27.5078 30.3059 27.6918 30.9647 26.6798 27.5765H23.2758C22.9078 28.5177 22.6318 29.1765 21.9878 30.3059C20.4238 33.5059 20.0558 34.3529 19.3198 35.7647H22.4478C22.7238 35.1059 22.7238 35.0118 22.8158 34.8235C22.9998 34.4471 22.9998 34.3529 23.1838 33.9765H25.8518C25.9438 34.1647 26.0358 34.5412 26.1278 34.9177C26.2198 35.2941 26.3118 35.5765 26.4038 35.8588L29.3478 35.6706C29.3478 35.7647 29.3478 35.7647 29.3478 35.6706ZM24.0118 31.8118C24.2878 31.2471 24.3798 31.0588 24.3798 30.8706C24.5638 30.4941 24.6558 30.1177 24.8398 29.8353C24.9318 30.3059 25.0238 30.5882 25.1158 30.8706C25.2078 31.1529 25.2998 31.3412 25.3918 31.8118H24.0118Z" fill="white"/>
<path d="M29.3478 35.6706C28.9798 34.5412 28.7038 33.8824 28.2438 32.4706C27.5078 30.3059 27.6918 30.9647 26.6798 27.5765H23.2758C22.9078 28.5177 22.6318 29.1765 21.9878 30.3059C20.4238 33.5059 20.0558 34.3529 19.3198 35.7647H22.4478C22.7238 35.1059 22.7238 35.0118 22.8158 34.8235C22.9998 34.4471 22.9998 34.3529 23.1838 33.9765H25.8518C25.9438 34.1647 26.0358 34.5412 26.1278 34.9177C26.2198 35.2941 26.3118 35.5765 26.4038 35.8588L29.3478 35.6706ZM29.3478 35.6706C29.3478 35.7647 29.3478 35.7647 29.3478 35.6706ZM24.0118 31.8118C24.2878 31.2471 24.3798 31.0588 24.3798 30.8706C24.5638 30.4941 24.6558 30.1177 24.8398 29.8353C24.9318 30.3059 25.0238 30.5882 25.1158 30.8706C25.2078 31.1529 25.2998 31.3412 25.3918 31.8118H24.0118Z" stroke="#4C4C4C" stroke-miterlimit="10"/>
<path d="M35.7876 28.0471C35.1436 27.5765 34.4076 27.5765 33.8556 27.5765C32.2916 27.5765 31.7396 27.6706 31.2796 27.6706C31.0956 27.6706 30.8196 27.6706 30.0836 27.6706C30.0836 28.7059 30.0836 29.5529 30.0836 30.5882C29.9916 33.4118 29.8996 34.6353 29.8076 35.4824C29.8076 35.5765 29.8076 35.7647 29.8076 35.8588H32.4756C32.4756 35.2 32.4756 34.5412 32.4756 33.7882C32.4756 33.2235 32.4756 32.4706 32.5676 31.5294C32.5676 30.6824 32.5676 30.3059 32.6596 29.8353C32.9356 29.7412 33.1196 29.7412 33.3036 29.7412C33.3956 29.7412 33.5796 29.7412 33.7636 29.8353C33.9476 29.9294 33.9476 30.1177 33.9476 30.3059C33.9476 30.5882 33.8556 30.7765 33.7636 30.8706C33.5796 30.9647 33.3956 31.0588 33.2116 31.0588C33.0276 31.0588 32.8436 31.0588 32.8436 31.0588L33.3036 33.0353C33.3956 33.0353 33.4876 33.0353 33.5796 33.0353C33.6716 33.0353 33.7636 33.0353 33.8556 33.0353C34.8676 33.0353 35.5116 32.6588 35.9716 32.1882C36.3396 31.7177 36.6156 31.1529 36.7076 30.4941C36.7076 30.4 36.7076 30.2118 36.7076 30.1177C36.7076 28.9882 36.2476 28.3294 35.7876 28.0471Z" fill="white" stroke="#4C4C4C" stroke-miterlimit="10"/>
<path d="M45.9078 27.5765H43.0558C42.2278 28.7059 41.6758 29.4588 41.2158 30.2118C40.6638 31.0588 40.5718 31.2471 40.1118 31.8118C40.1118 30.5882 40.2038 30.3059 40.2038 29.5529C40.2038 28.8941 40.2038 28.5177 40.3878 27.5765H37.6278C37.6278 28.1412 37.6278 28.8 37.6278 29.5529C37.5358 31.6235 37.4438 34.2588 37.2598 35.7647H40.0198C40.5718 35.0118 40.9398 34.4471 41.5838 33.6C42.1358 32.7529 42.3198 32.4706 42.8718 31.5294C42.7798 32.2824 42.7798 32.3765 42.6878 33.5059C42.5958 34.3529 42.5038 35.3882 42.5038 35.7647H45.4478V35.0118C45.4478 34.3529 45.4478 33.6 45.5398 31.4353C45.7238 30.8706 45.7238 29.8353 45.9078 27.5765Z" fill="white" stroke="#4C4C4C" stroke-miterlimit="10"/>
<path d="M54.7397 27.5765H48.6677C48.5757 28.2353 48.5757 28.7059 48.4837 29.2706C48.2997 30.4941 48.2077 31.0588 48.1157 31.4353C47.9317 32.3765 47.7477 32.8471 47.6557 33.0353C47.4717 33.3177 47.3797 33.4118 47.0117 33.4118C46.8277 33.4118 46.5517 33.4118 46.3677 33.2235L46.5517 35.5765C47.4717 35.8588 48.3917 35.6706 48.8517 35.2941C49.4037 34.9177 49.6797 34.2588 49.8637 33.7882C49.9557 33.5059 50.1397 33.0353 50.3237 32.2824C50.5077 31.6235 50.5997 31.1529 50.5997 30.6824C50.6917 30.3059 50.6917 30.0235 50.7837 29.6471H51.7957C51.7957 30.3059 51.7957 31.0588 51.7037 31.8118C51.6117 33.3177 51.6117 34.3529 51.4277 35.6706H54.3717C54.3717 35.2 54.2797 34.0706 54.4637 30.4941C54.5557 29.6471 54.6477 28.2353 54.7397 27.5765Z" fill="white" stroke="#4C4C4C" stroke-miterlimit="10"/>
<path d="M61.3639 27.5765C60.5359 28.7059 60.0759 29.4588 59.5239 30.2118C58.9719 31.0588 58.8799 31.2471 58.4199 31.8118C58.4199 30.5882 58.5119 30.3059 58.5119 29.5529C58.5119 28.8941 58.5119 28.5177 58.6959 27.5765H55.9359C55.9359 29.3647 55.7519 33.1294 55.5679 35.2941C55.5679 35.4824 55.5679 35.5765 55.5679 35.7647H58.3279C58.8799 35.0118 59.2479 34.4471 59.8919 33.6C60.4439 32.7529 60.6279 32.4706 61.1799 31.5294C61.0879 32.2824 61.0879 32.3765 60.9959 33.5059C60.9039 34.3529 60.8119 35.3882 60.8119 35.7647H63.7559V35.0118C63.7559 34.3529 63.7559 33.6 63.8479 31.4353C63.8479 31.0588 63.8479 30.4941 63.9399 29.2706C63.9399 28.8 64.0319 28.2353 64.0319 27.5765H61.3639Z" fill="white" stroke="#4C4C4C" stroke-miterlimit="10"/>
<path d="M68.4477 33.3177C68.0797 33.0353 67.8957 32.5647 67.8957 32C67.8957 31.4353 68.0797 30.8706 68.4477 30.4941C68.9077 30.0235 69.5517 29.7412 70.1957 29.7412C70.6557 29.7412 71.3917 29.9294 71.8517 30.0235L71.7597 27.6706C71.2077 27.5765 70.3797 27.3882 69.7357 27.3882C68.3557 27.3882 67.0677 27.7647 66.1477 28.7059C65.2277 29.6471 64.9517 30.7765 64.9517 31.9059C64.9517 33.2235 65.3197 34.2588 66.3317 35.0118C67.3437 35.7647 68.4477 35.8588 69.2757 35.8588C69.6437 35.8588 70.2877 35.8588 70.7477 35.7647C70.9317 35.7647 71.1157 35.7647 71.2997 35.6706V35.3882L71.5757 33.3177C71.1157 33.4118 70.3797 33.6 69.6437 33.6C69.2757 33.6941 68.9077 33.6 68.4477 33.3177Z" fill="white" stroke="#4C4C4C" stroke-miterlimit="10"/>
</svg>
