<svg width="125" height="64" viewBox="0 0 125 64" fill="none" xmlns="http://www.w3.org/2000/svg">
<g clip-path="url(#clip0_55_67)">
<path fill-rule="evenodd" clip-rule="evenodd" d="M32.4421 35.5033H123.367C124.235 35.5033 124.949 36.2123 124.949 37.0731V45.0995C124.949 45.9604 124.235 46.6694 123.367 46.6694H32.4421C31.575 46.6694 30.8608 45.9604 30.8608 45.0995V37.0731C30.8608 36.2123 31.575 35.5033 32.4421 35.5033Z" fill="white" stroke="#4C4C4C" stroke-width="0.5669"/>
<path fill-rule="evenodd" clip-rule="evenodd" d="M76.6936 44.7957C76.3876 44.7957 76.1325 44.5678 76.1325 44.264V44.2387V38.3138C76.1325 38.1619 76.1835 38.01 76.2856 37.9087C76.3876 37.8074 76.5406 37.7568 76.6936 37.7568H81.3611C81.5141 37.7568 81.6671 37.8074 81.7691 37.9087C81.8712 38.01 81.9222 38.1619 81.9222 38.3138V44.2387C81.9222 44.3906 81.8712 44.5425 81.7691 44.6438C81.6671 44.7451 81.5141 44.7957 81.3611 44.7957C81.208 44.7957 81.0805 44.7451 80.953 44.6438C80.851 44.5425 80.7744 44.3906 80.7744 44.2387V38.8202H77.2037V44.264C77.2037 44.4159 77.1527 44.5678 77.0507 44.6691C76.9742 44.7451 76.8467 44.7957 76.6936 44.7957ZM91.461 46.163C91.359 46.2896 91.206 46.3402 91.053 46.3402C90.7469 46.3402 90.4918 46.1123 90.4918 45.8085V45.7832V44.3399C90.4918 44.188 90.5429 44.0361 90.6449 43.9348C90.7469 43.8335 90.8999 43.7576 91.053 43.7829H91.257L93.6035 38.1619C93.68 37.934 93.884 37.7821 94.1391 37.7821C94.3941 37.7821 94.5981 37.934 94.6747 38.1619L97.0211 43.7576H97.2252C97.5312 43.7576 97.7863 43.9855 97.7863 44.2893C97.7863 44.3146 97.7863 44.3146 97.7863 44.3399V45.7579C97.7863 45.9098 97.7353 46.0617 97.6332 46.163C97.5312 46.2643 97.3782 46.3402 97.2252 46.3149C96.9191 46.3149 96.664 46.087 96.664 45.7832V45.7579V44.7704H91.6141V45.7579C91.6396 45.9098 91.5631 46.0617 91.461 46.163ZM62.4108 44.7197C62.3088 44.7957 62.1558 44.8463 62.0283 44.8463C61.8752 44.8463 61.7222 44.7704 61.6202 44.6691L59.1717 41.808H58.4066V44.2893C58.4066 44.4412 58.3555 44.5931 58.2535 44.6944C58.126 44.7957 57.973 44.8463 57.8199 44.821C57.6669 44.821 57.5394 44.7704 57.4374 44.6691C57.3353 44.5678 57.3098 44.4412 57.3098 44.2893V38.3645C57.3098 38.2125 57.3608 38.0606 57.4884 37.9593C57.5904 37.8581 57.7434 37.8074 57.8965 37.8074C58.0495 37.8074 58.2025 37.8581 58.3045 37.9593C58.4066 38.0606 58.4576 38.2125 58.4576 38.3645V40.7698H59.1717L61.4927 38.01C61.5947 37.8834 61.7477 37.8074 61.9007 37.8074C62.0538 37.8074 62.2068 37.8581 62.3088 37.9847C62.4108 38.0859 62.4618 38.2125 62.4618 38.3391C62.4618 38.4657 62.4108 38.5923 62.3088 38.6936L60.1409 41.175L62.5384 43.9348C62.6404 44.0361 62.6914 44.1627 62.6914 44.2893C62.6914 44.4159 62.6149 44.5678 62.5129 44.6438L62.4874 44.6691L62.4108 44.7197ZM50.8316 44.821C50.6275 44.821 50.449 44.7197 50.347 44.5425C50.245 44.3653 50.245 44.1627 50.347 43.9855L52.7699 38.1872C52.8465 37.9593 53.076 37.8074 53.3056 37.8074C53.5606 37.8074 53.7646 37.9593 53.8412 38.1872L56.3151 44.0614C56.3917 44.2387 56.3662 44.4412 56.2641 44.5931C56.1621 44.7451 55.9836 44.8463 55.7795 44.8463C55.6775 44.8463 55.5755 44.821 55.4735 44.7451C55.3715 44.6944 55.2949 44.5931 55.2694 44.4919L54.7848 43.3018H51.8263L51.3417 44.4919C51.2907 44.6185 51.2141 44.6944 51.1121 44.7704C51.0356 44.821 50.9336 44.821 50.8316 44.821ZM44.9654 44.821C44.6594 44.821 44.4043 44.5931 44.4043 44.2893C44.4043 44.264 44.4043 44.264 44.4043 44.2387V38.3391C44.4043 38.1872 44.4553 38.0353 44.5573 37.934C44.6594 37.8327 44.8124 37.7821 44.9654 37.7821H48.6891C48.8167 37.7821 48.9697 37.8327 49.0717 37.934C49.3013 38.0859 49.3778 38.4151 49.1992 38.6683C49.0972 38.8455 48.8932 38.9215 48.6891 38.8962H45.552V40.6432H47.4394C47.8475 40.6432 48.2811 40.7192 48.6636 40.8964C48.9952 41.0737 49.2758 41.3269 49.4543 41.6307C49.6583 41.9599 49.7604 42.3144 49.7604 42.6942C49.7604 43.0993 49.6583 43.4791 49.4543 43.8082C49.2503 44.1374 48.9952 44.4159 48.6636 44.5931C48.2811 44.7704 47.873 44.8717 47.4394 44.8717L44.9654 44.821ZM37.518 44.5425C37.4159 44.3653 37.4159 44.1627 37.518 43.9855L39.9409 38.1872C40.0175 37.9593 40.2215 37.8074 40.4765 37.8074C40.7316 37.8074 40.9356 37.9593 41.0121 38.1872L43.4861 44.0614C43.5882 44.2387 43.5882 44.4412 43.4861 44.5931C43.3076 44.8463 42.9505 44.9223 42.6955 44.7451C42.5935 44.6944 42.5169 44.5931 42.4914 44.4919L42.0068 43.3018H38.9973L38.5127 44.4665C38.4616 44.5678 38.3851 44.6691 38.2831 44.7197C38.2066 44.7704 38.1046 44.7957 38.0281 44.7957C37.7985 44.821 37.62 44.7197 37.518 44.5425ZM35.248 44.8463C35.2225 44.8463 35.2225 44.8463 35.197 44.8463H35.095V44.821C34.8399 44.7704 34.6359 44.5678 34.6359 44.2893V44.264V38.8455H32.8505C32.57 38.8709 32.3404 38.643 32.3149 38.3645C32.3149 38.3391 32.3149 38.3391 32.3149 38.3138C32.3149 38.1619 32.366 38.0353 32.468 37.934C32.57 37.8327 32.723 37.7821 32.8505 37.7821H37.5435C37.6965 37.7821 37.824 37.8327 37.926 37.934C38.0281 38.0353 38.0791 38.1619 38.0791 38.3138C38.1046 38.5923 37.875 38.8202 37.5945 38.8455C37.569 38.8455 37.569 38.8455 37.5435 38.8455H35.7581V44.2893C35.7836 44.5678 35.5541 44.821 35.248 44.8463ZM66.6192 44.6438C66.4661 44.6438 66.3131 44.5931 66.2111 44.4919C66.1091 44.3906 66.0325 44.2387 66.0325 44.0867V38.1619C66.0325 38.01 66.0836 37.8581 66.2111 37.7568C66.3131 37.6555 66.4661 37.6049 66.6192 37.6049C66.7722 37.6049 66.9252 37.6555 67.0272 37.7568C67.1293 37.8581 67.1803 38.01 67.1803 38.1619V42.7954L71.1846 37.8074C71.4141 37.5795 71.7712 37.5542 72.0007 37.7821C72.0007 37.7821 72.0007 37.7821 72.0262 37.8074C72.1282 37.9087 72.1793 38.0606 72.1793 38.2125V44.1121C72.1793 44.264 72.1282 44.4159 72.0262 44.5172C71.9242 44.6185 71.7712 44.6944 71.6181 44.6691C71.3121 44.6691 71.057 44.4412 71.057 44.1374C71.057 44.1121 71.057 44.1121 71.057 44.0867V39.4785L67.0527 44.4665C67.0017 44.5172 66.9252 44.5678 66.8487 44.6185C66.7722 44.6438 66.6957 44.6438 66.6192 44.6438ZM117.808 44.7957C117.655 44.7957 117.527 44.7451 117.4 44.6438C117.272 44.5425 117.221 44.3906 117.221 44.2387V38.3138C117.221 38.1619 117.272 38.01 117.4 37.9087C117.502 37.8074 117.655 37.7568 117.808 37.7568C117.961 37.7568 118.114 37.8074 118.216 37.9087C118.318 38.01 118.369 38.1619 118.369 38.3138V42.9473L122.373 37.9593C122.577 37.7061 122.934 37.6808 123.164 37.8581C123.291 37.9593 123.368 38.1366 123.368 38.3138V44.2387C123.368 44.3906 123.317 44.5425 123.215 44.6438C123.113 44.7451 122.96 44.821 122.807 44.7957C122.654 44.7957 122.526 44.7451 122.399 44.6438C122.297 44.5425 122.22 44.3906 122.22 44.2387V39.6304L118.216 44.6185C118.165 44.6691 118.088 44.7197 118.037 44.7451C117.961 44.7957 117.884 44.7957 117.808 44.7957ZM111.304 44.7957C111.202 44.7704 111.1 44.7197 111.023 44.6438C110.921 44.5425 110.845 44.3906 110.845 44.2387V38.3138C110.845 38.1619 110.896 38.01 111.023 37.9087C111.125 37.8074 111.278 37.7568 111.431 37.7568C111.584 37.7568 111.738 37.8074 111.84 37.9087C111.942 38.01 111.993 38.1619 111.993 38.3138V40.6939H112.758L115.079 37.9593C115.181 37.8327 115.334 37.7568 115.487 37.7568C115.64 37.7568 115.793 37.8074 115.895 37.934C115.997 38.0353 116.048 38.1619 116.048 38.2885C116.048 38.4151 115.971 38.5417 115.895 38.643L113.727 41.1243L116.124 43.8842C116.226 43.9855 116.277 44.1121 116.277 44.2387C116.277 44.3906 116.201 44.5172 116.099 44.5931L116.073 44.6185H116.048C115.818 44.7957 115.487 44.7957 115.257 44.5931L112.783 41.6814H112.018V44.188C112.044 44.4919 111.814 44.7451 111.508 44.7451C111.482 44.7451 111.457 44.7451 111.457 44.7451H111.355L111.304 44.7957ZM105.846 44.7957C105.693 44.7957 105.54 44.7451 105.438 44.6438C105.336 44.5425 105.259 44.3906 105.285 44.2387V38.3138C105.285 38.1619 105.336 38.01 105.438 37.9087C105.54 37.8074 105.693 37.7568 105.846 37.7568H107.606C108.039 37.7568 108.447 37.8581 108.83 38.0606C109.161 38.2632 109.442 38.567 109.621 38.8962C109.825 39.276 109.927 39.7064 109.927 40.1368C109.927 40.542 109.825 40.9724 109.621 41.3269C109.442 41.656 109.161 41.9346 108.83 42.1371C108.447 42.3397 108.039 42.441 107.606 42.441H106.432V44.2893C106.432 44.4412 106.381 44.5931 106.279 44.6944C106.152 44.7704 105.999 44.7957 105.846 44.7957ZM103.652 44.6944C103.55 44.6438 103.474 44.5425 103.423 44.4412L102.938 43.2765H99.9032L99.4186 44.4412C99.3676 44.5425 99.2911 44.6438 99.189 44.7197C99.087 44.7704 98.985 44.7957 98.883 44.7957C98.6789 44.7957 98.5004 44.6944 98.3984 44.5172C98.2964 44.3399 98.2964 44.1374 98.3984 43.9601L100.872 38.1113C100.949 37.8834 101.153 37.7315 101.408 37.7315C101.663 37.7315 101.867 37.8834 101.944 38.1113L104.418 43.9855C104.494 44.1627 104.494 44.3653 104.418 44.5172C104.239 44.7957 103.907 44.8717 103.652 44.6944ZM83.1209 41.2509C83.1209 40.7698 83.1974 40.2634 83.3759 39.8077C83.5545 39.3772 83.784 38.9975 84.1156 38.6683C84.4472 38.3391 84.8297 38.0606 85.2633 37.8834C86.207 37.5289 87.2272 37.5289 88.1709 37.8834C89.0381 38.2379 89.7267 38.9215 90.0583 39.7824C90.2368 40.2381 90.3133 40.7445 90.3133 41.2256C90.3133 41.732 90.2368 42.2131 90.0583 42.6688C89.8797 43.0993 89.6247 43.4791 89.3186 43.8082C88.987 44.1374 88.6045 44.4159 88.1709 44.5931C87.7118 44.7957 87.2272 44.8717 86.7171 44.897C86.2325 44.897 85.7224 44.821 85.2633 44.6438C84.8297 44.4665 84.4472 44.188 84.1156 43.8589C83.784 43.5297 83.5545 43.1499 83.3759 42.7195C83.2229 42.2384 83.1209 41.732 83.1209 41.2509ZM92.4302 43.7829H95.8989L94.1136 39.5038L92.4302 43.7829ZM54.4278 42.3397L53.3311 39.6811L52.2343 42.3144H54.4278V42.3397ZM45.5265 43.7576H47.4139C47.6434 43.7576 47.873 43.7069 48.077 43.631C48.2556 43.555 48.4086 43.4284 48.5106 43.2512C48.6126 43.0739 48.6892 42.8461 48.6636 42.6435C48.6636 42.441 48.6126 42.2384 48.5106 42.0612C48.4086 41.9092 48.2556 41.7826 48.077 41.732C47.873 41.656 47.6434 41.6054 47.4139 41.6054H45.5265V43.7576ZM41.6243 42.3397L40.5275 39.6811L39.4053 42.3144H41.6243V42.3397ZM106.432 41.3775H107.631C107.861 41.3775 108.09 41.3269 108.294 41.2256C108.473 41.1243 108.626 40.9724 108.728 40.7952C108.83 40.5926 108.906 40.39 108.881 40.1622C108.881 39.909 108.83 39.6811 108.728 39.4532C108.626 39.276 108.473 39.0987 108.294 38.9975C108.09 38.8962 107.861 38.8202 107.631 38.8202H106.432V41.3775ZM102.53 42.3144L101.433 39.6304L100.337 42.3144H102.53ZM88.528 43.0993C88.7575 42.8714 88.936 42.5929 89.0381 42.289C89.2931 41.6307 89.2931 40.9218 89.0381 40.2634C88.9105 39.9596 88.732 39.6811 88.528 39.4532C88.1454 39.0987 87.6863 38.8455 87.1762 38.7696C86.6916 38.6936 86.1815 38.7443 85.7224 38.9215C85.4163 39.0481 85.1613 39.2253 84.9318 39.4532C84.7022 39.6811 84.5237 39.9596 84.4216 40.2634C84.1666 40.9218 84.1666 41.6307 84.4216 42.289C84.5492 42.5929 84.7022 42.8714 84.9318 43.0993C85.1613 43.3271 85.4163 43.5044 85.7224 43.631C86.0285 43.7576 86.3855 43.8335 86.7171 43.8335C87.0487 43.8335 87.4057 43.7829 87.7118 43.631C88.0179 43.5297 88.2984 43.3271 88.528 43.0993Z" fill="#4C4C4C"/>
<path fill-rule="evenodd" clip-rule="evenodd" d="M76.6936 44.6944C76.4385 44.6944 76.2345 44.5171 76.2345 44.2639V44.2386V38.3138C76.2345 38.1872 76.2855 38.0859 76.362 37.9846C76.4385 37.9086 76.566 37.858 76.6936 37.858H81.361C81.4885 37.858 81.616 37.9086 81.6925 37.9846C81.7691 38.0606 81.8201 38.1872 81.8201 38.3138V44.2386C81.8201 44.3652 81.7691 44.4665 81.6925 44.5678C81.5905 44.6437 81.4885 44.6944 81.361 44.6944C81.2334 44.6944 81.1314 44.6437 81.0549 44.5678C80.9529 44.4918 80.9274 44.3652 80.9274 44.2386V38.6936H77.1271V44.2386C77.1271 44.3652 77.0761 44.4665 76.9996 44.5678C76.9231 44.6437 76.8211 44.6944 76.6936 44.6944ZM91.0529 46.2389C90.8233 46.2389 90.5938 46.0616 90.5938 45.8084V45.7831V44.3399C90.5938 44.2133 90.6448 44.112 90.7213 44.0107C90.7978 43.9348 90.9254 43.8841 91.0529 43.8841H91.3334L93.7054 38.2125C93.7564 38.0352 93.9349 37.9086 94.139 37.9086C94.343 37.9086 94.5216 38.0352 94.5726 38.2125L96.97 43.8841H97.2506C97.5056 43.8841 97.7097 44.0614 97.7097 44.3146V44.3399V45.7578C97.7097 45.8844 97.6587 45.9857 97.5822 46.087C97.5056 46.1629 97.3781 46.2136 97.2506 46.2136C96.9955 46.2136 96.7915 46.0363 96.7915 45.7831V45.7578V44.6437H91.512V45.7578C91.512 45.8844 91.461 45.9857 91.3844 46.087C91.3079 46.1882 91.1804 46.2389 91.0529 46.2389ZM92.2516 43.8841H96.0519L94.1135 39.2253L92.2516 43.8841ZM62.3597 44.5931C62.2577 44.669 62.1557 44.7197 62.0282 44.7197C61.9007 44.7197 61.7731 44.669 61.6966 44.5678L59.2226 41.6813H58.3045V44.2892C58.3045 44.4158 58.2534 44.5171 58.1769 44.6184C58.0749 44.6944 57.9474 44.745 57.8199 44.7197C57.6923 44.7197 57.5903 44.669 57.5138 44.5931C57.4373 44.5171 57.4118 44.3905 57.4118 44.2892V38.3644C57.4118 38.2378 57.4628 38.1112 57.5393 38.0352C57.6158 37.9593 57.7433 37.9086 57.8709 37.9086C57.9984 37.9086 58.1259 37.9593 58.2024 38.0352C58.2789 38.1112 58.33 38.2378 58.33 38.3644V40.8711H59.1971L61.5691 38.0606C61.6456 37.9593 61.7731 37.9086 61.9007 37.9086C62.0282 37.9086 62.1302 37.9593 62.2067 38.0352C62.2832 38.1112 62.3342 38.2125 62.3342 38.3138C62.3342 38.415 62.2832 38.5163 62.2067 38.6176L59.9368 41.2002L62.3853 44.036C62.4618 44.112 62.5128 44.2133 62.5128 44.3399C62.5128 44.4412 62.4618 44.5424 62.3853 44.6184H62.3597V44.5931ZM50.8315 44.7197C50.6785 44.7197 50.5254 44.6437 50.4489 44.5171C50.3724 44.3905 50.3724 44.2133 50.4489 44.0614L52.8974 38.2378C52.9484 38.0606 53.1269 37.934 53.331 37.934C53.535 37.934 53.7136 38.0606 53.7646 38.2378L56.2385 44.112C56.3151 44.2639 56.2896 44.4158 56.213 44.5424C56.1365 44.669 55.9835 44.745 55.8305 44.745C55.7284 44.745 55.6519 44.7197 55.5754 44.669C55.4989 44.6184 55.4479 44.5424 55.3969 44.4665L54.8868 43.2005H51.7752L51.2651 44.4665C51.2396 44.5678 51.1631 44.6437 51.0865 44.669C51.01 44.7197 50.908 44.7197 50.8315 44.7197ZM54.5807 42.4409L53.331 39.3772L52.0812 42.4409H54.5807ZM45.4244 43.8588H47.4393C47.6944 43.8588 47.9239 43.8082 48.1535 43.7322C48.3575 43.6309 48.5105 43.5043 48.6381 43.3271C48.7656 43.1245 48.8166 42.8967 48.8166 42.6435C48.8166 42.4156 48.7656 42.1877 48.6381 41.9851C48.536 41.8079 48.3575 41.6813 48.1535 41.6053C47.9239 41.5294 47.6944 41.4787 47.4393 41.4787H45.4244V43.8588ZM44.9653 44.7197C44.7103 44.7197 44.5062 44.5424 44.5062 44.2892V44.2639V38.3391C44.5062 38.2125 44.5573 38.1112 44.6338 38.0099C44.7103 37.934 44.8378 37.8833 44.9653 37.8833H48.6891C48.7911 37.8833 48.9186 37.934 48.9951 38.0099C49.1992 38.1365 49.2247 38.3897 49.0971 38.5923C48.9951 38.7189 48.8421 38.7948 48.6891 38.7695H45.4244V40.7445H47.4393C47.8474 40.7445 48.23 40.8204 48.6126 40.9977C48.9186 41.1496 49.1737 41.4028 49.3777 41.6813C49.5817 41.9851 49.6838 42.3396 49.6583 42.6941C49.6583 43.0739 49.5562 43.4284 49.3777 43.7575C49.1992 44.0614 48.9441 44.3399 48.6126 44.5171C48.2555 44.6944 47.8474 44.7956 47.4393 44.7703L44.9653 44.7197ZM38.0025 44.7197C37.8494 44.7197 37.6964 44.6437 37.6199 44.5171C37.5434 44.3905 37.5434 44.2133 37.6199 44.0614L40.0684 38.2378C40.1194 38.0606 40.2979 37.934 40.502 37.934C40.706 37.934 40.8845 38.0606 40.9355 38.2378L43.4095 44.112C43.486 44.2386 43.486 44.4158 43.4095 44.5424C43.2565 44.745 42.9759 44.7956 42.7719 44.669C42.6954 44.6184 42.6444 44.5424 42.5934 44.4665L42.0833 43.2005H38.9207L38.385 44.4412C38.3595 44.5424 38.283 44.5931 38.2065 44.6437C38.1555 44.669 38.079 44.6944 38.0025 44.7197ZM41.7772 42.4409L40.553 39.4025L39.2522 42.4662H41.7772V42.4409ZM32.8505 38.7189C32.6209 38.7442 32.4424 38.567 32.4424 38.3391C32.4424 38.3138 32.4424 38.3138 32.4424 38.2884C32.4424 38.1872 32.4679 38.0606 32.5444 37.9846C32.6209 37.9086 32.7229 37.858 32.8505 37.858H34.7378H35.656H37.5434C37.6454 37.858 37.7729 37.9086 37.8494 37.9846C37.926 38.0606 37.977 38.1872 37.9515 38.2884C37.9515 38.5163 37.7984 38.6936 37.5689 38.6936C37.5434 38.6936 37.5434 38.6936 37.5179 38.6936H35.6305V44.2386C35.6305 44.4918 35.452 44.6944 35.1969 44.6944H35.1714V44.669C34.9164 44.669 34.7123 44.4918 34.7123 44.2386V44.2133V38.7189H32.8505ZM66.6191 44.5171C66.4916 44.5171 66.364 44.4665 66.2875 44.3905C66.1855 44.3146 66.16 44.188 66.16 44.0614V38.1618C66.16 38.0352 66.211 37.9086 66.2875 37.8327C66.3895 37.7567 66.4916 37.7061 66.6191 37.7061C66.7466 37.7061 66.8486 37.7567 66.9506 37.8327C67.0272 37.9086 67.0782 38.0352 67.0782 38.1618V43.1245L71.2865 37.8833C71.465 37.7061 71.7456 37.6808 71.9496 37.858L71.9751 37.8833C72.0517 37.9593 72.1027 38.0859 72.1027 38.2125V44.112C72.1027 44.2386 72.0517 44.3399 71.9751 44.4412C71.8986 44.5171 71.7711 44.5678 71.6436 44.5678C71.414 44.5678 71.1845 44.3905 71.1845 44.1373V44.112V39.1493L66.9762 44.3905C66.9251 44.4412 66.8741 44.4665 66.8231 44.4918C66.7466 44.5171 66.6956 44.5424 66.6191 44.5171ZM117.808 44.6944C117.68 44.6944 117.578 44.6437 117.476 44.5678C117.374 44.4918 117.323 44.3652 117.323 44.2386V38.3138C117.323 38.1872 117.374 38.0606 117.476 37.9846C117.553 37.9086 117.68 37.858 117.808 37.858C117.935 37.858 118.037 37.9086 118.139 37.9846C118.216 38.0859 118.267 38.1872 118.241 38.3138V43.2764L122.45 38.0352C122.603 37.8327 122.883 37.8074 123.087 37.9593C123.189 38.0352 123.266 38.1872 123.266 38.3138V44.2386C123.266 44.3652 123.215 44.4665 123.138 44.5678C123.062 44.6437 122.934 44.6944 122.807 44.6944C122.679 44.6944 122.577 44.6437 122.501 44.5678C122.399 44.4918 122.373 44.3652 122.373 44.2386V39.3266L118.19 44.5678C118.139 44.6184 118.088 44.6437 118.037 44.669C117.935 44.6944 117.859 44.6944 117.808 44.6944ZM111.406 44.6944C111.278 44.6944 111.176 44.6437 111.074 44.5678C110.972 44.4918 110.947 44.3652 110.947 44.2386V38.3138C110.947 38.1872 110.998 38.0606 111.074 37.9846C111.151 37.9086 111.278 37.858 111.406 37.858C111.533 37.858 111.661 37.9086 111.737 37.9846C111.814 38.0606 111.865 38.1872 111.865 38.3138V40.8204H112.783L115.13 38.0352C115.206 37.934 115.334 37.8833 115.461 37.8833C115.589 37.8833 115.691 37.934 115.767 38.0099C115.844 38.0859 115.895 38.1872 115.895 38.2884C115.895 38.3897 115.844 38.491 115.767 38.5923L113.548 41.1496L115.997 43.9854C116.073 44.0614 116.124 44.1626 116.124 44.2892C116.124 44.3905 116.073 44.4918 115.997 44.5678H115.971C115.793 44.745 115.487 44.745 115.308 44.5678L112.809 41.6307H111.89V44.2386C111.916 44.4665 111.712 44.669 111.482 44.6944C111.457 44.6944 111.431 44.6944 111.406 44.6944ZM106.305 41.4787H107.606C107.861 41.4787 108.09 41.4281 108.32 41.3015C108.524 41.1749 108.677 41.023 108.804 40.8204C108.932 40.6179 108.983 40.3647 108.983 40.1368C108.983 39.8836 108.932 39.6051 108.804 39.3772C108.702 39.1746 108.524 38.9974 108.32 38.8708C108.09 38.7442 107.861 38.6936 107.606 38.6936H106.305V41.4787ZM105.871 44.6944C105.744 44.6944 105.642 44.6437 105.54 44.5678C105.463 44.4918 105.412 44.3652 105.412 44.2386V38.3138C105.412 38.1872 105.463 38.0859 105.54 37.9846C105.616 37.9086 105.744 37.858 105.871 37.858H107.631C108.039 37.858 108.447 37.9593 108.804 38.1365C109.136 38.3391 109.391 38.6176 109.57 38.9468C109.774 39.3012 109.876 39.7064 109.85 40.1368C109.85 40.5419 109.748 40.9217 109.57 41.2762C109.391 41.58 109.136 41.8585 108.804 42.0358C108.447 42.2383 108.039 42.3143 107.631 42.3143H106.33V44.2639C106.33 44.3905 106.279 44.4918 106.203 44.5931C106.101 44.6437 105.973 44.6944 105.871 44.6944ZM98.9084 44.6944C98.7554 44.6944 98.6023 44.6184 98.5258 44.4918C98.4493 44.3652 98.4493 44.188 98.5258 44.036L101 38.1872C101.051 38.0099 101.229 37.8833 101.433 37.8833C101.637 37.8833 101.816 38.0099 101.867 38.1872L104.341 44.0614C104.418 44.188 104.418 44.3652 104.341 44.4918C104.188 44.6944 103.907 44.745 103.703 44.6184C103.627 44.5678 103.55 44.4918 103.525 44.4158L103.015 43.1752H99.8521L99.342 44.4158C99.3165 44.4918 99.24 44.5678 99.1635 44.6184C99.0869 44.669 99.0104 44.6944 98.9084 44.6944ZM102.709 42.4156L101.433 39.3266L100.158 42.4156H102.709ZM86.717 43.9601C87.0741 43.9601 87.4312 43.8841 87.7627 43.7575C88.0688 43.6309 88.3493 43.4284 88.6044 43.2005C88.8339 42.9473 89.0125 42.6688 89.14 42.3396C89.3951 41.656 89.3951 40.8964 89.14 40.2381C89.0125 39.9342 88.8339 39.6304 88.6044 39.3772C87.8137 38.6176 86.666 38.415 85.6713 38.8202C85.3653 38.9468 85.0847 39.1493 84.8552 39.3772C84.6256 39.6304 84.4471 39.9089 84.3196 40.2381C84.0645 40.9217 84.0645 41.6813 84.3196 42.3396C84.4471 42.6435 84.6256 42.9473 84.8552 43.2005C85.0847 43.4537 85.3653 43.6309 85.6713 43.7575C86.0029 43.8841 86.36 43.9601 86.717 43.9601ZM86.717 44.7703C86.2324 44.7703 85.7478 44.6944 85.3143 44.5171C84.9062 44.3399 84.5236 44.0867 84.2175 43.7575C83.9115 43.4284 83.6564 43.0739 83.5034 42.6435C83.3249 42.1877 83.2483 41.7066 83.2483 41.2255C83.2483 40.7445 83.3249 40.2634 83.5034 39.8329C83.6564 39.4278 83.9115 39.048 84.2175 38.7189C84.5236 38.3897 84.9062 38.1365 85.3143 37.9593C86.2324 37.6048 87.2271 37.6048 88.1453 37.9593C88.987 38.2884 89.6501 38.9468 89.9562 39.7823C90.1347 40.2381 90.2112 40.6938 90.2112 41.1749C90.2112 41.656 90.1347 42.1371 89.9562 42.5928C89.7776 42.9979 89.5481 43.3777 89.242 43.7069C88.936 44.036 88.5534 44.2892 88.1453 44.4665C87.6862 44.669 87.2016 44.7703 86.717 44.7703Z" fill="#4C4C4C"/>
<path fill-rule="evenodd" clip-rule="evenodd" d="M54.351 33.4018C53.4073 33.4271 52.5147 33.1739 51.724 32.6675C50.9333 32.1864 50.3212 31.5028 49.8876 30.6926C49.4286 29.8317 49.199 28.8442 49.199 27.8567C49.1735 26.8439 49.4286 25.8565 49.9387 24.9956C51.469 22.3623 54.8866 21.4508 57.5391 22.9953C58.3808 23.4764 59.0694 24.16 59.554 24.9956C60.0386 25.8565 60.2937 26.8439 60.2937 27.8567H60.3192V32.313C60.3447 32.8701 59.8856 33.3258 59.35 33.3258C59.3245 33.3258 59.3245 33.3258 59.299 33.3258C58.7379 33.3511 58.2788 32.8954 58.2788 32.3637C58.2788 32.3384 58.2788 32.3384 58.2788 32.313V31.5534C57.9217 31.9839 57.4881 32.3637 57.029 32.6675C56.1874 33.1486 55.2692 33.4271 54.351 33.4018ZM54.7591 31.6041C55.3967 31.6041 56.0343 31.4522 56.5955 31.123C57.1311 30.7938 57.5646 30.3381 57.8707 29.781C58.1768 29.1987 58.3553 28.5404 58.3298 27.8567C58.3298 27.1984 58.1768 26.5148 57.8707 25.9324C57.5646 25.3754 57.1311 24.9196 56.5955 24.5905C55.4732 23.9322 54.0705 23.9322 52.9482 24.5905C52.4126 24.9196 51.9535 25.3754 51.673 25.9324C51.3414 26.5148 51.1884 27.1984 51.1884 27.8567C51.1884 28.5151 51.3414 29.1734 51.673 29.781C51.9791 30.3381 52.4126 30.7938 52.9482 31.123C53.4838 31.4268 54.1215 31.6041 54.7591 31.6041Z" fill="#4C4C4C" stroke="#4C4C4C" stroke-width="0.5669"/>
<path fill-rule="evenodd" clip-rule="evenodd" d="M68.3791 33.4017C67.3844 33.427 66.3897 33.1992 65.497 32.7434C64.6808 32.313 64.0177 31.68 63.5331 30.9204C63.0485 30.1101 62.7935 29.1986 62.7935 28.2365H62.819V25.983C62.8445 24.4385 63.3036 22.9446 64.1707 21.6533C65.1909 20.2354 66.5937 19.1213 68.2005 18.463L71.9753 16.7919C72.2048 16.6906 72.4599 16.6653 72.6894 16.7412C72.9189 16.8172 73.072 16.9944 73.1485 17.2223C73.2505 17.4502 73.2505 17.6781 73.225 17.906C73.174 18.1085 72.97 18.3111 72.6384 18.463L68.5576 20.3367C67.6904 20.6911 66.8998 21.2229 66.2366 21.8559C65.65 22.4129 65.1909 23.0712 64.8849 23.8308C64.6808 24.3625 64.5278 24.9196 64.4768 25.5019C64.8849 24.793 65.4715 24.1853 66.1856 23.7802C67.7924 22.894 69.7308 22.894 71.3121 23.7802C72.0518 24.2106 72.6639 24.8436 73.072 25.6032C73.5056 26.4134 73.7351 27.3503 73.7096 28.2871C73.7351 29.2239 73.4801 30.1355 73.021 30.971C72.5619 31.7559 71.9242 32.3889 71.1336 32.794C70.2919 33.1992 69.3482 33.4017 68.3791 33.4017ZM68.3791 31.604C68.9912 31.6293 69.6033 31.4774 70.1389 31.1736C70.649 30.8951 71.0571 30.4899 71.3376 29.9835C71.6437 29.4518 71.7712 28.8441 71.7712 28.2365C71.7712 27.6288 71.6437 27.0464 71.3376 26.5147C71.0571 26.0336 70.649 25.6032 70.1389 25.3247C69.6033 25.0462 68.9912 24.8942 68.3791 24.9196C67.7414 24.8942 67.1038 25.0462 66.5172 25.3247C66.0071 25.6032 65.5735 26.0083 65.2674 26.5147C64.9614 27.0464 64.8084 27.6288 64.8084 28.2365C64.8084 28.8441 64.9614 29.4518 65.2674 29.9835C65.5735 30.4899 66.0071 30.8951 66.5172 31.1736C67.1038 31.4521 67.7414 31.604 68.3791 31.604Z" fill="#4C4C4C" stroke="#4C4C4C" stroke-width="0.5669"/>
<path fill-rule="evenodd" clip-rule="evenodd" d="M81.106 33.4018C80.1623 33.4271 79.2696 33.1739 78.4789 32.6675C77.7138 32.1864 77.0762 31.5028 76.6426 30.6925C76.1835 29.8063 75.954 28.8442 75.9795 27.8567C75.954 26.8439 76.209 25.8564 76.7191 24.9956C77.2037 24.16 77.8923 23.4764 78.7085 22.9953C79.5757 22.4889 80.5449 22.261 81.5395 22.261C83.5289 22.2357 85.3653 23.2738 86.3345 24.9702C86.8446 25.8311 87.0741 26.8186 87.0741 27.8314H87.0996V32.2877C87.1251 32.8447 86.6661 33.3005 86.1304 33.3005C86.1049 33.3005 86.1049 33.3005 86.0794 33.3005C85.7989 33.3005 85.5438 33.1992 85.3398 33.022C85.1358 32.8194 85.0337 32.5662 85.0592 32.2877V31.5281C84.7022 31.9585 84.2686 32.3383 83.784 32.6422C82.9678 33.1486 82.0496 33.4018 81.106 33.4018ZM81.514 31.604C82.1517 31.604 82.7893 31.4521 83.3504 31.123C83.886 30.7938 84.3196 30.338 84.6256 29.781C84.9317 29.1987 85.1102 28.5403 85.0847 27.8567C85.0847 27.1984 84.9317 26.5147 84.6001 25.9324C84.2941 25.3754 83.8605 24.9196 83.3249 24.5904C82.2027 23.9321 80.7999 23.9321 79.6777 24.5904C79.1421 24.9196 78.683 25.3754 78.3769 25.9324C78.0454 26.5147 77.8923 27.1984 77.8923 27.8567C77.8923 28.515 78.0454 29.1733 78.3769 29.781C78.683 30.338 79.1166 30.7938 79.6777 31.123C80.2388 31.4521 80.8764 31.604 81.514 31.604Z" fill="#4C4C4C" stroke="#4C4C4C" stroke-width="0.5669"/>
<path fill-rule="evenodd" clip-rule="evenodd" d="M91.0785 33.3258C90.8235 33.3512 90.5429 33.2246 90.3644 33.0473C90.1859 32.8448 90.0838 32.5916 90.1093 32.313V23.4004C90.1093 23.1219 90.1859 22.8687 90.3644 22.6662C90.5429 22.4636 90.798 22.3623 91.0785 22.3877C91.3591 22.3877 91.6397 22.4889 91.8437 22.6662C92.0477 22.8687 92.1498 23.1219 92.1242 23.4004V26.768H93.6545L97.3018 22.7168C97.5058 22.5143 97.7608 22.413 98.0414 22.3877C98.2965 22.337 98.577 22.413 98.781 22.5902C98.9596 22.7421 99.0871 22.97 99.1126 23.2232C99.1381 23.4511 99.0616 23.679 98.8831 23.8562L95.2359 27.7301L99.1126 31.832C99.4442 32.1358 99.4442 32.6675 99.1381 32.9967C99.1126 33.022 99.0871 33.0473 99.0616 33.0726V33.098C98.628 33.4271 98.0159 33.4018 97.5823 33.0473L93.4505 28.6417H92.1242V32.3384C92.1242 32.6169 92.0222 32.8701 91.8437 33.0726C91.6397 33.2499 91.3591 33.3512 91.0785 33.3258Z" fill="#4C4C4C" stroke="#4C4C4C" stroke-width="0.5669"/>
<path fill-rule="evenodd" clip-rule="evenodd" d="M106.279 33.4018C105.285 33.4271 104.29 33.1739 103.397 32.6928C102.581 32.2371 101.892 31.5534 101.433 30.7432C100.49 28.9455 100.49 26.7933 101.433 24.9703C101.892 24.16 102.581 23.4764 103.397 23.0206C105.183 22.0585 107.351 22.0585 109.161 23.0206C109.978 23.4764 110.666 24.16 111.125 24.9703C112.069 26.768 112.069 28.9202 111.125 30.7432C110.666 31.5534 110.003 32.2371 109.161 32.6928C108.269 33.1739 107.274 33.4271 106.279 33.4018ZM106.279 31.6041C106.917 31.6294 107.58 31.4521 108.141 31.123C108.677 30.7938 109.11 30.3381 109.391 29.8064C109.697 29.1987 109.85 28.5404 109.85 27.8567C109.85 27.1731 109.697 26.5148 109.391 25.9071C109.11 25.3501 108.677 24.8943 108.141 24.5651C106.993 23.9321 105.591 23.9321 104.443 24.5651C103.907 24.8943 103.474 25.3501 103.168 25.9071C102.862 26.5148 102.683 27.1731 102.709 27.8567C102.683 28.5404 102.862 29.1987 103.168 29.8064C103.474 30.3634 103.907 30.8191 104.443 31.123C104.979 31.4521 105.616 31.6041 106.279 31.6041Z" fill="#4C4C4C" stroke="#4C4C4C" stroke-width="0.5669"/>
<path fill-rule="evenodd" clip-rule="evenodd" d="M123.852 33.3258C123.291 33.3511 122.832 32.8954 122.832 32.3636C122.832 32.3383 122.832 32.3383 122.832 32.313V28.5403H116.609V32.313C116.609 32.5915 116.507 32.8447 116.328 33.0473C116.124 33.2498 115.869 33.3511 115.588 33.3258C115.308 33.3258 115.053 33.2245 114.874 33.0473C114.696 32.8447 114.594 32.5915 114.594 32.313V23.4004C114.594 23.1219 114.67 22.8687 114.874 22.6661C115.053 22.4636 115.333 22.3623 115.588 22.3876C116.124 22.3623 116.583 22.7674 116.609 23.2991C116.609 23.3498 116.609 23.3751 116.609 23.4257V26.7933H122.832V23.4004C122.806 23.1219 122.934 22.8434 123.112 22.6661C123.316 22.4889 123.572 22.3876 123.852 22.3876C124.133 22.3623 124.413 22.4889 124.592 22.6915C124.77 22.894 124.872 23.1725 124.847 23.4257V32.3383C124.847 32.6168 124.77 32.87 124.592 33.0726C124.388 33.2498 124.133 33.3511 123.852 33.3258Z" fill="#4C4C4C" stroke="#4C4C4C" stroke-width="0.5669"/>
<path fill-rule="evenodd" clip-rule="evenodd" d="M45.552 33.3258C44.9909 33.3511 44.5318 32.9207 44.5318 32.3637C44.5318 32.3383 44.5318 32.3383 44.5318 32.313V26.5907C44.5828 25.9071 44.3788 25.2235 43.9197 24.6917C43.4861 24.2613 42.874 24.0587 42.2874 24.0841C41.6242 24.0587 41.0121 24.3373 40.5785 24.793C40.196 25.1981 39.9664 25.7299 39.9154 26.2616C39.9154 26.3629 39.9154 26.4641 39.9154 26.5401V32.2624C39.9154 32.5409 39.8134 32.7941 39.6349 32.9967C39.4563 33.1992 39.1758 33.3258 38.8952 33.3005C38.6147 33.3005 38.3596 33.1992 38.1556 33.022C37.9515 32.8194 37.8495 32.5662 37.875 32.2877V26.5907C37.926 25.9071 37.722 25.2235 37.2629 24.6917C36.8293 24.2613 36.2172 24.0587 35.6306 24.0841C34.9674 24.0587 34.3553 24.3373 33.8962 24.793C33.5137 25.1981 33.2841 25.7299 33.2331 26.2869V32.2877C33.2331 32.5662 33.1311 32.8194 32.9525 33.022C32.7485 33.2245 32.4935 33.3258 32.2129 33.3258C31.6518 33.3511 31.1927 32.8954 31.1927 32.3637C31.1927 32.3383 31.1927 32.3383 31.1927 32.313V23.4004C31.1672 23.1219 31.2947 22.8434 31.4733 22.6408C31.6773 22.4636 31.9323 22.3623 32.2129 22.3623C32.4935 22.337 32.7485 22.4636 32.9525 22.6408C33.1311 22.8181 33.2331 23.0713 33.2331 23.3498C33.4371 23.1472 33.6922 22.97 33.9472 22.7928C34.5849 22.413 35.3245 22.2104 36.0642 22.2357C36.7783 22.2104 37.4669 22.3876 38.1046 22.7421C38.5636 22.9953 38.9462 23.3751 39.2523 23.8055C39.5838 23.4004 39.9919 23.0713 40.451 22.8181C41.1652 22.4383 41.9558 22.2357 42.772 22.261C43.4861 22.2357 44.2003 22.413 44.8379 22.7674C45.4245 23.1219 45.9091 23.6283 46.2151 24.236C46.5722 24.9703 46.7252 25.7805 46.6997 26.5907V32.313C46.6997 32.5915 46.5977 32.8447 46.4192 33.0473C46.1131 33.2245 45.8326 33.3511 45.552 33.3258Z" fill="#4C4C4C" stroke="#4C4C4C" stroke-width="0.5669"/>
<path fill-rule="evenodd" clip-rule="evenodd" d="M10.0997 32.5409L9.97221 32.7434C9.76817 33.0726 9.48761 33.4271 9.25807 33.7562C9.53862 34.0348 9.74266 34.3892 9.89569 34.769C10.2018 35.5033 10.4313 36.2376 10.6098 36.9972C10.7119 37.3263 10.8904 37.6808 11.1964 37.8327C11.5535 37.9847 11.9616 37.8834 12.2932 37.7315C13.0073 37.377 13.4664 36.744 13.8235 36.035C14.5121 34.6424 14.9202 33.1232 15.3538 31.6294C16.1444 28.9961 17.0116 26.3882 18.4144 23.9828C20.1487 21.0457 22.7757 18.7162 25.9383 17.3743C26.4229 17.1717 26.933 17.0198 27.4431 16.9692C28.4378 16.8172 29.407 17.4756 29.5856 18.463C29.6111 18.5643 29.6111 18.6909 29.6111 18.8175C29.6366 19.1973 29.509 19.5518 29.2795 19.8303L28.3103 21.1469C26.6525 21.5267 25.2497 22.5649 24.408 24.0334C23.1583 26.1096 22.1636 28.3378 21.5005 30.6672C20.6588 33.5537 19.7916 36.4401 18.7714 39.276C17.7767 42.0612 16.0424 44.2893 13.2624 45.5047C9.71716 47.0492 6.32499 46.4668 3.39192 43.9855C2.11667 42.922 1.22399 41.5548 0.43334 40.1115C0.0762699 39.4532 -0.0767601 38.6683 0.0507649 37.9087V37.8834V37.8581C0.12728 37.4276 0.28031 37.0478 0.63738 36.7693C0.68839 36.7187 0.7394 36.6933 0.79041 36.668C0.7394 36.2882 0.815915 35.8831 1.01995 35.5286C1.12197 35.3007 1.275 35.0729 1.45354 34.8703L1.47904 34.845L1.50455 34.8703C3.13687 33.4018 5.04974 32.5915 7.26868 32.7941C7.62575 32.8194 7.82979 32.8447 8.16135 32.9966L8.26337 32.2624C8.23787 32.0598 8.23787 31.5787 8.13585 31.3762C8.11034 31.3508 8.11034 31.3255 8.08484 31.3002C7.67676 31.0977 7.21767 30.9711 6.75858 30.9457H6.73307H6.70757C5.53434 30.7938 4.36111 30.7685 3.18788 30.4647C2.14217 30.2115 1.04546 29.6544 0.68839 28.5657C0.33132 27.4516 0.94344 26.3628 1.68308 25.5526C2.11667 25.0715 2.60126 24.6664 3.13687 24.3119L4.08055 23.6789L4.51414 24.717C4.66717 25.0968 4.69267 25.5273 4.51414 25.9071C4.41212 26.1096 4.28459 26.2869 4.15707 26.4388C4.13156 26.4894 4.05505 26.5401 4.02954 26.5654C3.90202 26.7426 3.62146 27.1984 3.69798 27.4263C3.77449 27.6288 4.25909 27.8061 4.43762 27.8314C5.40681 28.0846 6.42701 28.2112 7.3962 28.4137C8.11034 28.515 8.82448 28.7682 9.4366 29.148H9.46211L9.48761 29.1733C9.9467 29.5025 10.3038 29.9329 10.4568 30.4647C10.6353 31.2749 10.4568 31.9585 10.0997 32.5409Z" fill="#4C4C4C" stroke="#4C4C4C" stroke-width="0.0099"/>
<path fill-rule="evenodd" clip-rule="evenodd" d="M3.62167 25.0462C3.82571 25.502 3.41763 25.7298 3.2391 26.0337C2.32092 27.325 2.65248 28.3378 4.18278 28.7429C5.17748 29.0214 6.22318 29.148 7.24338 29.3506C7.8555 29.4265 8.41661 29.6544 8.92671 29.9583C9.69186 30.49 9.79388 31.2243 9.18176 32.1104C9.13075 31.4268 9.13075 30.7938 8.54414 30.4393C8.00853 30.1608 7.42192 30.0089 6.8098 29.9583C5.66208 29.8063 4.51435 29.781 3.39213 29.5025C1.32623 28.9961 0.94365 27.7301 2.37193 26.135C2.729 25.7298 3.16258 25.35 3.62167 25.0462Z" fill="white" stroke="#4C4C4C" stroke-width="0.0099"/>
<path fill-rule="evenodd" clip-rule="evenodd" d="M28.1575 20.1341C26.2446 20.5646 24.6123 21.7799 23.6431 23.4764C22.3424 25.6286 21.3222 27.9327 20.6335 30.3381C19.7919 33.1992 18.9247 36.0603 17.93 38.8962C17.0118 41.4282 15.456 43.4791 12.931 44.5678C9.71739 45.9604 6.7078 45.4287 4.05528 43.2005C2.88205 42.2131 2.04038 40.9218 1.30074 39.5798C0.994678 39.1241 0.892658 38.5417 0.969173 38.01C1.04569 37.5795 1.19872 37.2504 1.78533 37.4276C2.34644 37.5795 2.90755 37.3517 3.46866 37.1744C4.61639 36.8199 5.1775 37.1238 5.43255 38.2632C5.58558 39.0734 5.66209 39.909 5.63659 40.7445C5.6876 43.4284 7.34542 44.9983 10.0234 44.7704C12.9565 44.5425 15.15 43.0993 16.4762 40.466C17.7515 37.9087 18.4146 35.1995 18.8992 32.389C19.2307 30.2874 19.7153 28.2112 20.2765 26.1603C21.1436 23.1472 23.082 20.995 25.709 19.3746C26.1936 19.096 26.7802 18.5896 27.0608 19.6531C27.1373 20.0329 27.6984 19.8556 28.1575 20.1341Z" fill="white" stroke="#4C4C4C" stroke-width="0.0099"/>
<path fill-rule="evenodd" clip-rule="evenodd" d="M5.33068 35.4526C4.56553 36.1363 3.62184 36.6427 2.60164 36.8959C2.32109 37.0225 2.01503 36.9465 1.81099 36.7186C1.65796 36.4654 1.65796 36.1363 1.83649 35.9084C1.91301 35.7565 1.98952 35.6046 2.11705 35.4526C3.54533 34.1613 5.20315 33.427 7.16704 33.6296C8.0087 33.7056 8.72284 34.2373 9.0034 35.0222C9.28395 35.7058 9.5135 36.4148 9.69203 37.1491C10.0746 38.6176 11.3499 39.1747 12.7271 38.491C13.6708 38.0353 14.2319 37.2503 14.691 36.3641C15.4052 34.9209 15.8387 33.3511 16.2978 31.8066C17.063 29.2493 17.9046 26.692 19.2819 24.3625C20.9142 21.5773 23.3882 19.3998 26.3723 18.1338C26.7804 17.9566 27.1885 17.8553 27.622 17.8047C28.1321 17.7034 28.6167 18.0326 28.7188 18.539C28.7188 18.6149 28.7443 18.6656 28.7443 18.7415C28.7698 19.0454 28.5402 19.3492 28.2342 19.3745C28.2087 19.3745 28.1832 19.3745 28.1832 19.3745C27.9026 19.3998 27.622 19.3239 27.622 18.9694C27.6476 17.9819 27.0609 18.2098 26.5253 18.4377C23.5668 19.8303 21.2713 21.8812 19.9705 24.9196C18.9503 27.2743 18.3892 29.781 17.8536 32.2876C17.4966 33.9081 17.1905 35.5539 16.5019 37.0984C15.9408 38.3391 15.2776 39.5291 14.1299 40.3394C12.7526 41.3015 10.8653 40.9977 9.89607 39.6304C9.76855 39.4785 9.69203 39.3013 9.59001 39.124C9.20744 38.3138 9.10542 37.4023 8.90138 36.5414C8.44229 34.5918 7.42209 33.9081 5.35618 34.2879C4.438 34.4145 3.57083 34.769 2.83119 35.3514C2.55063 35.5792 2.14255 35.8577 2.32109 36.2629C2.52513 36.7439 3.00972 36.4401 3.31578 36.3135C3.9024 36.0856 4.51452 35.7818 5.33068 35.4526Z" fill="white" stroke="#4C4C4C" stroke-width="0.0099"/>
</g>
<defs>
<clipPath id="clip0_55_67">
<rect width="125" height="64" fill="white"/>
</clipPath>
</defs>
</svg>
